<svg xmlns="http://www.w3.org/2000/svg" width="81.49" height="24.492" viewBox="0 0 81.49 24.492">
  <g id="Group_1" data-name="Group 1" transform="translate(-0.009 0.003)">
    <path id="Path_1" data-name="Path 1" d="M244.144,6.508c1.586,0,3.174-.016,4.759.01.469.008.645-.155.734-.611.272-1.39.291-1.386-1.092-1.386-2.856,0-5.711-.011-8.567.009-.583,0-.746-.138-.6-.744C240.013,1.241,241.3.159,243.93.128c2.5-.029,5-.009,7.5,0a4.636,4.636,0,0,1,.777.073c2.033.348,2.739,1.325,2.322,3.334-.912,4.4-1.862,8.791-2.783,13.188-.091.435-.25.627-.734.611-1.081-.039-2.164-.025-3.248-.007-.43.007-.551-.12-.453-.559.385-1.729.716-3.47,1.118-5.194.13-.557-.015-.667-.544-.658q-2.49.042-4.983,0c-.482-.008-.683.136-.779.624-.338,1.738-.738,3.464-1.089,5.2-.083.412-.23.6-.688.592-1.082-.031-2.167-.043-3.247,0-.622.026-.55-.285-.465-.686.643-3.008,1.274-6.018,1.925-9.025.283-1.308.045-1.095,1.377-1.107C241.343,6.5,242.744,6.508,244.144,6.508Z" transform="translate(-210.072 -0.102)"/>
    <path id="Path_2" data-name="Path 2" d="M22.811,174.831H3.044a2.773,2.773,0,1,1,.03-5.519q19.711,0,39.422,0a4.95,4.95,0,0,1,2.727.7,5.335,5.335,0,0,0,3.188.848c.522-.022,1.045-.01,1.567,0a1.263,1.263,0,0,1,1.339,1.214,1.287,1.287,0,0,1-1.247,1.269,17.4,17.4,0,0,1-1.9.011,5,5,0,0,0-2.973.8,4.5,4.5,0,0,1-2.448.678Q32.778,174.826,22.811,174.831Zm3.892-2.046q11.679,0,23.358.01c.547,0,.721-.176.692-.708-.024-.436-.025-.732-.617-.73q-23.442.017-46.883,0c-.439,0-.616.115-.648.595-.045.674.192.853.851.851Q15.078,172.766,26.7,172.785ZM2.96,170a2.212,2.212,0,0,0-2.237,2.245c0,.195-.048.478.236.475.251,0,.177-.281.2-.45a1.784,1.784,0,0,1,1.823-1.857c.175-.021.443.025.42-.236S3.109,170.03,2.96,170Zm8.907,3.989c-.08-.174.129-.523-.187-.523-.223,0-.143.337-.137.523s-.113.539.183.532C11.965,174.52,11.807,174.183,11.868,173.993Zm5.375.022c-.071-.188.127-.535-.167-.555-.242-.015-.16.324-.156.507.006.2-.115.548.16.56C17.336,174.541,17.187,174.2,17.243,174.015Zm-10.755-.062c-.071-.168.117-.5-.174-.492-.24.007-.151.335-.149.522s-.1.51.173.5S6.43,174.137,6.488,173.954ZM4.158,170.4a.165.165,0,0,0,.186-.165.17.17,0,0,0-.207-.2.181.181,0,0,0,.021.361Z" transform="translate(0 -150.345)"/>
    <path id="Path_3" data-name="Path 3" d="M19.2,67.894c-1.362,0-2.726.035-4.087-.008-2.272-.072-3.2-1.224-2.762-3.435.454-2.285.965-4.558,1.441-6.839.076-.365.231-.535.635-.527q1.65.037,3.3,0c.472-.01.568.149.467.6-.388,1.727-.733,3.464-1.119,5.193-.108.481-.029.665.515.655,1.679-.03,3.359-.026,5.038,0,.457.007.663-.138.757-.593.295-1.432.309-1.429-1.177-1.429-.765,0-1.53-.012-2.3,0-.363.008-.522-.1-.436-.484q.4-1.773.769-3.551A.4.4,0,0,1,20.7,57.1a52.827,52.827,0,0,1,5.311.105c1.843.234,2.634,1.279,2.294,3.1-.266,1.428-.561,2.854-.914,4.264a3.932,3.932,0,0,1-4.166,3.322C21.887,67.923,20.543,67.894,19.2,67.894Z" transform="translate(-10.865 -50.687)"/>
    <path id="Path_4" data-name="Path 4" d="M594.051.011c2.3,0,4.591.019,6.886-.013.6-.009.68.2.555.715-.253,1.051-.476,2.11-.68,3.17a.575.575,0,0,1-.681.542c-1.324-.019-2.651.022-3.975-.02-.609-.019-.876.153-1,.785-.763,3.763-1.586,7.513-2.354,11.275-.121.594-.345.794-.953.763-1.024-.054-2.052-.029-3.079-.009-.447.009-.53-.145-.439-.568.828-3.864,1.629-7.732,2.46-11.6.105-.491.037-.661-.505-.648-1.343.035-2.688-.007-4.031.02-.5.01-.671-.124-.548-.641q.38-1.6.687-3.226c.083-.434.287-.562.719-.559C589.422.021,591.736.011,594.051.011Z" transform="translate(-520.044)"/>
    <path id="Path_5" data-name="Path 5" d="M430.218.03h4.816c.187,0,.373,0,.56.009,2.493.078,3.4,1.228,2.889,3.672q-1.17,5.554-2.36,11.1c-.128.6-.276,1.2-.373,1.807-.071.439-.241.636-.725.62-1.063-.037-2.129-.039-3.191,0-.558.021-.6-.188-.5-.655.817-3.772,1.615-7.547,2.421-11.322.177-.829.179-.829-.66-.829-3.043,0-6.085-.013-9.128.011-.589,0-.751-.148-.6-.734.26-1.03.474-2.071.669-3.117a.591.591,0,0,1,.7-.578C426.559.043,428.388.03,430.218.03Z" transform="translate(-375.879 -0.019)"/>
    <path id="Path_6" data-name="Path 6" d="M39.112,4.517c-2.3,0-4.593-.012-6.89.009-.523,0-.641-.149-.523-.653.613-2.629,1.925-3.72,4.653-3.751C38.816.1,41.281.117,43.745.117a3.81,3.81,0,0,1,.392.012c2.534.249,3.29,1.379,2.6,4.076-.1.4-.42.308-.681.308C43.743,4.52,41.428,4.517,39.112,4.517Z" transform="translate(-28.102 -0.099)"/>
    <path id="Path_7" data-name="Path 7" d="M401.011,68.037c-.6,0-1.193-.012-1.79,0-.333.009-.431-.117-.363-.434q1.062-4.971,2.114-9.945a.474.474,0,0,1,.55-.42c1.118.007,2.238.024,3.355-.009.547-.016.564.231.473.652-.609,2.821-1.2,5.645-1.812,8.467-.364,1.686-.372,1.684-2.08,1.684Z" transform="translate(-354.148 -50.824)"/>
    <path id="Path_8" data-name="Path 8" d="M171.846,68.1c-.541,0-1.084-.028-1.623.009-.484.032-.569-.158-.476-.585.468-2.149.922-4.3,1.381-6.451.23-1.075.473-2.148.683-3.226.073-.374.223-.549.623-.543,1.119.017,2.239.012,3.359,0,.406,0,.516.151.43.55q-1.054,4.892-2.078,9.789c-.071.335-.22.473-.565.462C173,68.081,172.424,68.1,171.846,68.1Z" transform="translate(-150.693 -50.882)"/>
    <path id="Path_9" data-name="Path 9" d="M197,.067c.577,0,1.155.018,1.732-.007.4-.018.479.155.4.5-.253,1.144-.506,2.289-.741,3.436-.06.3-.174.473-.5.472q-1.759-.008-3.52,0c-.354,0-.457-.159-.383-.493.255-1.163.507-2.326.745-3.492a.456.456,0,0,1,.537-.423C195.849.078,196.427.067,197,.067Z" transform="translate(-172.231 -0.054)"/>
    <path id="Path_10" data-name="Path 10" d="M468.519,171.5c0,.728-.009,1.455,0,2.183.009.6-.44.446-.756.444s-.773.17-.762-.435a5.358,5.358,0,0,1,0-.671c.09-.627-.13-.866-.792-.829-.941.053-.943.011-.943.949,0,1.056-.013,1.06-1.053,1-.323-.019-.471-.123-.468-.465q.015-2.156,0-4.311c0-.318.137-.435.438-.419.223.011.448.01.672,0,.276-.01.425.1.408.389-.007.112,0,.224,0,.336.006,1.314.011,1.311,1.347,1.192.291-.026.4-.142.384-.417a7.133,7.133,0,0,0-.007-.727c-.083-.6.132-.8.761-.8s.829.17.775.789C468.479,170.3,468.52,170.9,468.519,171.5Z" transform="translate(-411.788 -149.998)"/>
    <path id="Path_11" data-name="Path 11" d="M568.5,173.794c-.9,0-.9,0-.539-.811.591-1.325,1.21-2.639,1.771-3.978.2-.486.555-.468.95-.467s.789-.034,1,.477c.6,1.423,1.239,2.829,1.885,4.231.205.445.062.56-.373.549-.564-.015-1.186.133-1.359-.679-.04-.189-.246-.2-.421-.2-.41,0-.821.025-1.228-.008a.643.643,0,0,0-.79.5C569.26,173.935,568.815,173.755,568.5,173.794Zm2.189-2.154c.158-.077.5.112.447-.222s-.17-.928-.441-.925-.383.579-.447.925S570.538,171.559,570.692,171.639Z" transform="translate(-504.127 -149.658)"/>
    <path id="Path_12" data-name="Path 12" d="M517.38,168.294c.5-.124.8.145.969.7.2.678.463,1.339.71,2,.048.128.028.347.206.346.066,0,.144-.232.194-.366.287-.769.56-1.543.853-2.309.128-.335,1.466-.561,1.7-.3.109.123.023.245-.026.363-.612,1.482-1.23,2.962-1.833,4.449-.209.518-.646.324-1.009.357s-.644-.009-.807-.417c-.53-1.334-1.091-2.657-1.639-3.984C516.345,168.291,516.346,168.291,517.38,168.294Z" transform="translate(-458.616 -149.412)"/>
    <path id="Path_13" data-name="Path 13" d="M629.549,173.231c-1.557-.011-2.493-.617-2.866-1.7a2.867,2.867,0,0,1,.868-3.189,3,3,0,0,1,3.312-.132c.2.13.644.276.36.593-.259.289-.44.905-1.083.566a1.347,1.347,0,0,0-1.619.091,1.386,1.386,0,0,0-.358,1.589,1.265,1.265,0,0,0,1.984.587c.744-.472.878.249,1.129.551.32.386-.195.507-.42.653A2.56,2.56,0,0,1,629.549,173.231Z" transform="translate(-556.321 -148.983)"/>
    <path id="Path_14" data-name="Path 14" d="M148.292,191.135H131.557a5.629,5.629,0,0,1-.615-.02.342.342,0,0,1-.326-.327.348.348,0,0,1,.289-.415,3,3,0,0,1,.609-.049q16.819,0,33.639,0c.075,0,.15,0,.224,0,.315.025.71,0,.684.454-.025.425-.411.355-.7.355Q156.827,191.138,148.292,191.135Z" transform="translate(-115.973 -169.002)"/>
  </g>
</svg>
