<svg xmlns="http://www.w3.org/2000/svg" width="184.311" height="93.343" viewBox="0 0 184.311 93.343">
  <g id="Layer_2" data-name="Layer 2" transform="translate(-390.705 315.286)">
    <g id="Layer_1" data-name="Layer 1" transform="translate(390.705 -315.286)">
      <path id="Path_17" data-name="Path 17" d="M3.45,63.337A25.766,25.766,0,0,1,12.5,44.066c4.982-4.321,10.547-7.226,15.117-10.135,4.4-2.905,7.561-5.712,7.561-9.633,0-4.57-2.909-7.234-7.479-7.234-7.475,0-9.633,5.4-9.633,11.71H4.862C3.948,14.4,13.251,4.7,27.621,4.7,39.082,4.7,49.3,10.682,49.3,23.061c0,11.216-7.977,15.2-16.447,20.519a47.656,47.656,0,0,0-10.47,7.81h27.5V63.349Z" transform="translate(-2.042 -2.782)" fill="#fff"/>
      <path id="Path_18" data-name="Path 18" d="M178.512,39.572V51.535h-7.557V64.408H156.834V51.535H131.5V38.327L157.409,6.51h13.546V39.56Zm-21.262,0V20.88h-.167L142.464,39.572Z" transform="translate(-77.845 -3.854)" fill="#fff"/>
      <path id="Path_19" data-name="Path 19" d="M273.947,0H286.9L264.559,61.8H251.6Z" transform="translate(-148.942)" fill="#fff"/>
      <path id="Path_20" data-name="Path 20" d="M348.5,6.51h42.116V17.894c-2.493,2.077-8.389,10.131-12.375,18.687a68.041,68.041,0,0,0-6.063,27.827h-15.2a70.113,70.113,0,0,1,7.642-27.827c3.986-8.887,9.886-16.031,11.629-17.112v-.163H348.5Z" transform="translate(-206.305 -3.854)" fill="#fff"/>
      <path id="Path_21" data-name="Path 21" d="M4.247,183.207c0,3.7,2.754,5.2,6.153,5.2,3.742,0,5.133-1.873,5.133-3.672a2.879,2.879,0,0,0-2-2.991c-1.734-.649-3.876-1.089-7.242-2.007-4.178-1.085-5.37-3.635-5.37-6.153,0-4.9,4.488-7.136,8.87-7.136,5.035,0,9.315,2.685,9.315,7.752H14.856c-.237-3.125-2.277-4.284-5.235-4.284-1.971,0-4.456.714-4.456,3.162,0,1.734,1.159,2.619,2.893,3.13.371.1,5.745,1.493,7,1.869a6.436,6.436,0,0,1,4.725,6.186c0,5.439-4.86,7.614-9.654,7.614C4.59,191.874.1,189.226,0,183.207Z" transform="translate(0 -98.535)" fill="#fff"/>
      <path id="Path_22" data-name="Path 22" d="M74.23,167.86H91.7v3.672H78.482v6.357H90.722v3.468H78.482v7.1H91.946v3.672H74.23Z" transform="translate(-43.943 -99.37)" fill="#fff"/>
      <path id="Path_23" data-name="Path 23" d="M143.38,167.86h11.592c5.337,0,8.022,2.448,8.022,6.561,0,4.66-3.195,5.847-4.011,6.12v.069c1.465.167,3.6,1.322,3.6,5.133,0,2.856.408,5.4,1.326,6.39h-4.553a6.78,6.78,0,0,1-.645-3.57c0-4.451-.918-6.426-4.827-6.426h-6.255v10H143.38Zm4.252,11.049H154.6c2.717,0,4.145-1.293,4.145-3.876,0-3.125-2.007-3.7-4.215-3.7h-6.9Z" transform="translate(-84.878 -99.37)" fill="#fff"/>
      <path id="Path_24" data-name="Path 24" d="M210.45,167.86h4.419l6.084,19.206h.069l6.222-19.206h4.317l-8.3,24.273h-4.725Z" transform="translate(-124.582 -99.37)" fill="#fff"/>
      <path id="Path_25" data-name="Path 25" d="M284.76,167.86h4.252v24.273H284.76Z" transform="translate(-168.572 -99.37)" fill="#fff"/>
      <path id="Path_26" data-name="Path 26" d="M339.1,174.745c-.714-2.824-2.517-4.831-6.051-4.831-5.2,0-7.377,4.59-7.377,9.25s2.175,9.246,7.377,9.246c3.807,0,5.81-2.823,6.186-6.357h4.145c-.371,5.81-4.451,9.821-10.331,9.821-7.242,0-11.629-5.741-11.629-12.71,0-6.9,4.386-12.714,11.629-12.714,5.5,0,9.756,3.06,10.3,8.3Z" transform="translate(-190.274 -98.535)" fill="#fff"/>
      <path id="Path_27" data-name="Path 27" d="M401.4,167.86h17.471v3.672h-13.22v6.357h12.241v3.468H405.652v7.1h13.465v3.672H401.4Z" transform="translate(-237.621 -99.37)" fill="#fff"/>
    </g>
  </g>
</svg>
