<svg id="Layer_2" data-name="Layer 2" xmlns="http://www.w3.org/2000/svg" width="94.312" height="47.764" viewBox="0 0 94.312 47.764">
  <g id="Layer_1" data-name="Layer 1" transform="translate(0 0)">
    <path id="Path_17" data-name="Path 17" d="M3.45,34.7a13.185,13.185,0,0,1,4.633-9.861,59.87,59.87,0,0,1,7.735-5.186c2.253-1.487,3.869-2.923,3.869-4.929a3.478,3.478,0,0,0-3.827-3.7c-3.825,0-4.929,2.762-4.929,5.992H4.172C3.7,9.665,8.465,4.7,15.818,4.7c5.865,0,11.095,3.061,11.095,9.4,0,5.739-4.082,7.779-8.416,10.5a24.386,24.386,0,0,0-5.357,4H27.21v6.119Z" transform="translate(-2.73 -3.719)" fill="#0090ff"/>
    <path id="Path_18" data-name="Path 18" d="M155.556,23.428v6.122h-3.867v6.587h-7.226V29.549H131.5V22.791L144.758,6.51h6.932V23.422Zm-10.88,0V13.863h-.086l-7.481,9.564Z" transform="translate(-104.045 -5.151)" fill="#0090ff"/>
    <path id="Path_19" data-name="Path 19" d="M263.035,0h6.629L258.231,31.625H251.6Z" transform="translate(-199.07)" fill="#0090ff"/>
    <path id="Path_20" data-name="Path 20" d="M348.5,6.51h21.551v5.825c-1.276,1.063-4.293,5.184-6.332,9.562a34.817,34.817,0,0,0-3.1,14.239h-7.779A35.877,35.877,0,0,1,356.747,21.9c2.04-4.547,5.059-8.2,5.95-8.756v-.084H348.5Z" transform="translate(-275.739 -5.151)" fill="#0090ff"/>
    <path id="Path_21" data-name="Path 21" d="M2.173,175.025c0,1.9,1.409,2.662,3.148,2.662,1.915,0,2.627-.958,2.627-1.879a1.473,1.473,0,0,0-1.025-1.53c-.887-.332-1.983-.557-3.706-1.027C1.079,172.695.47,171.39.47,170.1c0-2.505,2.3-3.652,4.539-3.652,2.576,0,4.767,1.374,4.767,3.967H7.6c-.121-1.6-1.165-2.192-2.679-2.192-1.008,0-2.28.365-2.28,1.618,0,.887.593,1.34,1.48,1.6.19.052,2.94.764,3.583.956a3.293,3.293,0,0,1,2.418,3.165c0,2.783-2.487,3.9-4.94,3.9-2.835,0-5.132-1.357-5.184-4.437Z" transform="translate(0 -131.698)" fill="#0090ff"/>
    <path id="Path_22" data-name="Path 22" d="M74.23,167.86h8.94v1.879H76.406v3.253h6.264v1.775H76.406V178.4H83.3v1.879H74.23Z" transform="translate(-58.732 -132.813)" fill="#0090ff"/>
    <path id="Path_23" data-name="Path 23" d="M143.38,167.86h5.932c2.731,0,4.1,1.253,4.1,3.357a3,3,0,0,1-2.052,3.132v.035c.75.086,1.844.676,1.844,2.627a5.61,5.61,0,0,0,.679,3.27h-2.33a3.469,3.469,0,0,1-.33-1.827c0-2.278-.47-3.288-2.47-3.288h-3.2v5.115H143.38Zm2.176,5.654h3.566c1.39,0,2.121-.662,2.121-1.983,0-1.6-1.027-1.9-2.157-1.9h-3.531Z" transform="translate(-113.445 -132.813)" fill="#0090ff"/>
    <path id="Path_24" data-name="Path 24" d="M210.45,167.86h2.261l3.113,9.827h.035l3.184-9.827h2.209l-4.245,12.421H214.59Z" transform="translate(-166.511 -132.813)" fill="#0090ff"/>
    <path id="Path_25" data-name="Path 25" d="M284.76,167.86h2.176v12.421H284.76Z" transform="translate(-225.307 -132.813)" fill="#0090ff"/>
    <path id="Path_26" data-name="Path 26" d="M330.467,170.695a2.956,2.956,0,0,0-3.1-2.472c-2.662,0-3.775,2.349-3.775,4.733s1.113,4.731,3.775,4.731c1.948,0,2.973-1.445,3.165-3.253h2.121a5.1,5.1,0,0,1-5.286,5.025c-3.706,0-5.95-2.938-5.95-6.5,0-3.533,2.244-6.506,5.95-6.506,2.816,0,4.992,1.566,5.27,4.245Z" transform="translate(-254.313 -131.698)" fill="#0090ff"/>
    <path id="Path_27" data-name="Path 27" d="M401.4,167.86h8.94v1.879h-6.765v3.253h6.264v1.775h-6.264V178.4h6.89v1.879H401.4Z" transform="translate(-317.594 -132.813)" fill="#0090ff"/>
  </g>
</svg>
