<svg xmlns="http://www.w3.org/2000/svg" width="107.38" height="47.386" viewBox="0 0 107.38 47.386">
  <g id="Layer_2" data-name="Layer 2" transform="translate(177 206)">
    <g id="Layer_1" data-name="Layer 1" transform="translate(0 0)">
      <g id="Layer_2-2" data-name="Layer 2" transform="translate(-177 -206)">
        <g id="Layer_1-2" data-name="Layer 1-2">
          <path id="Path_28" data-name="Path 28" d="M73.9.479A3.989,3.989,0,0,0,72.339.015a.673.673,0,0,1-.17-.055H4.288C4.058,0,3.829.03,3.6.08a4.383,4.383,0,0,0-3.271,2.7A7.235,7.235,0,0,0,.06,3.8,1.142,1.142,0,0,1,0,3.969V24.789c.04.2.065.394.115.6a4.283,4.283,0,0,0,2.877,3.171,4.407,4.407,0,0,0,1.585.254H71.651a4.657,4.657,0,0,0,2.662-.738,4.039,4.039,0,0,0,1.825-2.747.693.693,0,0,1,.06-.14V3.61a.5.5,0,0,1-.06-.115A4.088,4.088,0,0,0,73.9.479ZM58.563,8.8h1.052v4.846H58.563Zm-9.234,0h3.39c.264,0,.264,0,.264.259v.5c0,.249,0,.249-.249.249H50.417v.912H52.65v.967H50.656c-.254,0-.254,0-.254.244v.7h2.363c.264,0,.264,0,.264.269v.718H49.36ZM25.926,28.4H4.437A3.909,3.909,0,0,1,.7,25.956,3.35,3.35,0,0,1,.414,24.58V4.293A3.714,3.714,0,0,1,1.994,1.266,4.218,4.218,0,0,1,4.627.409H26.066V28.4Zm8.147-7.13a2.643,2.643,0,0,1-.813.16H30.767V16.593h2.338a1.9,1.9,0,0,1,1,.279,1.222,1.222,0,0,1,.3,1.7,1.5,1.5,0,0,1-.14.165c-.06.045-.115.1-.175.155a3.43,3.43,0,0,1,.5.389,1.261,1.261,0,0,1-.115,1.78,1.311,1.311,0,0,1-.394.234Zm.419-7.643a.269.269,0,0,1-.179-.15c-.14-.3-.264-.608-.394-.922H31.909c-.115.279-.244.573-.359.873a.269.269,0,0,1-.3.209h-.863a1.042,1.042,0,0,1,.055-.214c.633-1.5,1.271-2.991,1.9-4.487a.294.294,0,0,1,.314-.2,5.594,5.594,0,0,0,.578,0,.294.294,0,0,1,.314.2c.374.912.758,1.815,1.147,2.717.244.568.5,1.132.728,1.7l.11.289H34.5Zm4.986,5.863a2.7,2.7,0,0,1-.09.748,1.665,1.665,0,0,1-1.162,1.182,2.857,2.857,0,0,1-1.546.035A1.77,1.77,0,0,1,35.31,19.8V16.812c0-.125,0-.229.17-.229H36.4v2.493a3.37,3.37,0,0,0,0,.593.942.942,0,0,0,1.037.823.927.927,0,0,0,.957-.882V16.837c0-.264,0-.264.264-.264h.823V16.8c0,.907.03,1.81,0,2.717Zm-.818-5.883a2.742,2.742,0,0,1-1.765-.025,2.363,2.363,0,0,1-1.561-2.044,2.433,2.433,0,0,1,.8-2.194,2.383,2.383,0,0,1,1.585-.618,2.712,2.712,0,0,1,1.64.4c.459.3.464.314.1.718l-.394.439h0c-.115-.08-.209-.16-.279-.214a1.406,1.406,0,0,0-1.865.065,1.535,1.535,0,0,0,.638,2.543,1.5,1.5,0,0,0,1.3-.319.673.673,0,0,1,.16-.13.234.234,0,0,1,.2,0c.214.17.414.369.633.568a2.219,2.219,0,0,1-1.192.833Zm4.218,7.688a2.633,2.633,0,0,1-1.91.085,2.7,2.7,0,0,1-1.177-.668l.653-.788c.264.15.5.309.743.419a1.5,1.5,0,0,0,.967.125.8.8,0,0,0,.224-.045.349.349,0,0,0,.17-.17.344.344,0,0,0-.17-.479h0a4.3,4.3,0,0,0-.653-.249c-.314-.11-.633-.189-.942-.309a1.147,1.147,0,0,1-.768-1.082,1.371,1.371,0,0,1,.6-1.311,1.994,1.994,0,0,1,1.321-.3,2.7,2.7,0,0,1,1.61.623c-.174.254-.339.5-.5.753-.08.115-.17.03-.244,0a1.949,1.949,0,0,0-.967-.364,2.219,2.219,0,0,0-.364,0,.414.414,0,0,0-.329.334.344.344,0,0,0,.219.379c.249.095.5.17.763.259s.538.165.793.274a1.2,1.2,0,0,1,.773,1.147,1.351,1.351,0,0,1-.813,1.371Zm.543-7.768a2.642,2.642,0,0,1-2.368-.12,2.353,2.353,0,0,1-1.227-2.239,2.393,2.393,0,0,1,2.114-2.423,2.6,2.6,0,0,1,2.1.5l.155.14a.713.713,0,0,1,.08.12l-.693.788a1.785,1.785,0,0,0-1.466-.524,1.311,1.311,0,0,0-.828.5,1.6,1.6,0,0,0,.09,1.994,1.281,1.281,0,0,0,1.137.414,1.885,1.885,0,0,0,1.047-.528l.738.693a2.044,2.044,0,0,1-.863.688Zm1.865,7.893h-1c-.045,0-.095-.075-.125-.13a.4.4,0,0,1,0-.155V16.872c0-.294,0-.294.289-.294h.813Zm.533-7.773H44.733V9.054c0-.264,0-.264.259-.264h2.039A2.064,2.064,0,0,1,47.988,9a1.361,1.361,0,0,1,.8,1.227,2.991,2.991,0,0,1-.05.7,1.5,1.5,0,0,1-.932,1L48.941,13.6l-.035.06H47.864a.334.334,0,0,1-.339-.184c-.259-.4-.538-.8-.8-1.192a.349.349,0,0,0-.344-.179h-.558Zm4.537,7.773h-.813a.449.449,0,0,1-.259-.179l-1.77-2.313a1.5,1.5,0,0,0-.324-.344,1.332,1.332,0,0,0,0,.2V21.17c0,.284,0,.284-.274.284h-.833V16.593h.947c.065,0,.14.095.184.16l1.949,2.558c.045.055.095.11.145.16V16.593h1.047ZM54.8,21.3c0,.135-.09.135-.179.135H51.354c-.269,0-.269,0-.269-.259V16.827c0-.165.03-.249.229-.249h3.43v.967H52.221v.932h2.234v1H52.211v.947H54.8Zm-.364-7.658h-.942V9.094c0-.309,0-.309.3-.309h1.645a2.493,2.493,0,0,1,2.109,1A2.418,2.418,0,0,1,57,13.152a2.493,2.493,0,0,1-1.077.429,10.35,10.35,0,0,1-1.5.08ZM58.1,21.254a2.672,2.672,0,0,1-2.134.055,2.293,2.293,0,0,1-1-.618L55.547,20c.08-.1.15-.045.229,0a5.655,5.655,0,0,0,.6.359,1.411,1.411,0,0,0,.967.1.683.683,0,0,0,.349-.239l.03-.06a.314.314,0,0,0-.17-.4h0a5.768,5.768,0,0,0-.693-.254c-.3-.11-.613-.189-.912-.3a1.162,1.162,0,0,1-.778-1.107,1.366,1.366,0,0,1,.668-1.3,2.084,2.084,0,0,1,1.356-.274,2.752,2.752,0,0,1,1.391.5c.12.095.16.155.05.289s-.309.439-.464.663c-.224-.1-.414-.219-.623-.314a1.346,1.346,0,0,0-.912-.12.394.394,0,0,0-.339.344.349.349,0,0,0,.259.379c.309.1.633.189.942.3a4.039,4.039,0,0,1,.833.359,1.411,1.411,0,0,1-.219,2.323Zm4.722-1.142a1.306,1.306,0,0,1-.793,1.192,2.7,2.7,0,0,1-1.915.075,2.937,2.937,0,0,1-1.167-.668h0c.214-.269.434-.5.638-.758l.553.344a1.705,1.705,0,0,0,1.137.209.439.439,0,0,0,.419-.364.429.429,0,0,0-.314-.429c-.234-.095-.4-.13-.593-.2a9.828,9.828,0,0,1-1-.349,1.092,1.092,0,0,1-.648-.967,1.5,1.5,0,0,1,1.306-1.665h.189a2.832,2.832,0,0,1,1.685.4c.1.06.194.14.309.219l-.563.843-.279-.155a1.885,1.885,0,0,0-.9-.314,1.456,1.456,0,0,0-.359.03.394.394,0,0,0-.3.349.349.349,0,0,0,.239.364c.2.085.414.15.613.219.329.115.668.2,1,.344A1.2,1.2,0,0,1,62.821,20.113ZM64.1,9.812H62.672v3.834H61.555V9.817h-1.5V8.795h4.014Zm4.078,3.834H64.516V8.8h3.645v1H65.633v.917h2.224v1H65.613v.962h2.543Zm2.877-.04c-.763.09-1.546.055-2.348.075V8.81a1.994,1.994,0,0,1,.244,0h1.72a2.418,2.418,0,0,1,.384,4.816Z" transform="translate(0 0.04)" fill="#0090ff"/>
          <path id="Path_29" data-name="Path 29" d="M23.405,11.515c.823.578,1.635,1.172,2.458,1.77a1.73,1.73,0,0,1,.793,1.361,1.8,1.8,0,0,1-.309,1.127l.234.165c.04-.05.065-.075.085-.1.683-.952,1.376-1.9,2.069-2.852a3.161,3.161,0,0,0,.653-1.755,3.081,3.081,0,0,0-1.311-2.8Q26.4,7.167,24.712,5.97a1.042,1.042,0,0,1-.344-1.3c.025-.06.05-.12.07-.184l-.224-.14a.753.753,0,0,0-.09.13c-.578.828-1.172,1.605-1.715,2.418A3.1,3.1,0,0,0,22.1,10a3.49,3.49,0,0,0,1.306,1.516Z" transform="translate(-10.941 -2.161)" fill="#0090ff"/>
          <path id="Path_30" data-name="Path 30" d="M20.429,23.987l2.154,1.571a.573.573,0,0,1,.244.723.564.564,0,0,0,0,.13l.269.184a1.191,1.191,0,0,0,.11-.115c.364-.5.728-1,1.082-1.5a2.179,2.179,0,0,0-.424-2.991c-.249-.194-.5-.369-.763-.553l-1.5-1.1a.553.553,0,0,1-.244-.7l.045-.14-.294-.214-1.157,1.59-.055.075a2.2,2.2,0,0,0,.528,3.031Z" transform="translate(-9.784 -9.652)" fill="#0090ff"/>
          <path id="Path_31" data-name="Path 31" d="M36.454,45.177l-.334-.184a1.151,1.151,0,0,1,.179-.125,1.346,1.346,0,0,0,.279-1.86,1.466,1.466,0,0,0-1.147-.593c-.9-.045-1.81-.045-2.712-.045-.269,0-.269,0-.269.279v5.2h2.837a3.345,3.345,0,0,0,.962-.2,1.251,1.251,0,0,0,.873-1.1A1.291,1.291,0,0,0,36.454,45.177Zm-2.822-1.745a.833.833,0,0,1,.15-.04h1.381a.553.553,0,0,1,.5.6h0a.464.464,0,0,1-.259.419.888.888,0,0,1-.369.115h-1.4Zm1.825,3.34a8.476,8.476,0,0,1-1.067.055h-.758V45.616a.913.913,0,0,1,.2-.025h1.177a2.074,2.074,0,0,1,.464.06.563.563,0,0,1,.5.593.528.528,0,0,1-.514.548Z" transform="translate(-16.271 -21.225)" fill="#0090ff"/>
          <path id="Path_32" data-name="Path 32" d="M26.173,45.307c-.17-.115-.339-.219-.5-.319l.17-.13a1.386,1.386,0,0,0,.434-.553,1.331,1.331,0,0,0-.713-1.735,2.558,2.558,0,0,0-.882-.2H22v5.484h2.991a2.124,2.124,0,0,0,1.092-.319,1.391,1.391,0,0,0,.4-1.925,1.5,1.5,0,0,0-.274-.309Zm-2.991-1.87a1.187,1.187,0,0,1,.184-.03h1.227a.558.558,0,0,1,.593.5h0a.528.528,0,0,1-.369.568.728.728,0,0,1-.254.06h-1.4Zm2.308,2.837a.5.5,0,0,1-.324.464,1.431,1.431,0,0,1-.454.1H23.162V45.636s.035-.035.05-.035c.568,0,1.132,0,1.7.03h.085a.568.568,0,0,1,.5.618Z" transform="translate(-11.031 -21.225)" fill="#0090ff"/>
          <path id="Path_33" data-name="Path 33" d="M15.5,45.157l-.364-.2.095-.1a1.331,1.331,0,0,0-.344-2.383,3.665,3.665,0,0,0-.9-.145H11.739c-.259,0-.259,0-.259.264v5.265h2.892a2.762,2.762,0,0,0,.932-.209,1.4,1.4,0,0,0,.608-.533,1.386,1.386,0,0,0-.4-1.92Zm-2.852-1.8a11.163,11.163,0,0,1,1.526.07h0a.5.5,0,0,1,.469.5v.03a.538.538,0,0,1-.454.553.763.763,0,0,1-.179.035H12.647Zm1.785,3.41a5.386,5.386,0,0,1-.748.05H12.647V45.546a15.091,15.091,0,0,1,1.785.07.583.583,0,0,1,.548.538.573.573,0,0,1-.548.6Z" transform="translate(-5.756 -21.205)" fill="#0090ff"/>
          <path id="Path_34" data-name="Path 34" d="M26.337,35.414c-.045-.194-.145-.234-.329-.234H17.223c-.329,0-.329,0-.424.314l-.239.793h2.493l.5,1.5h3.864a.269.269,0,0,0,.3-.229h0c.13-.424.264-.848.394-1.291h2.493A6.441,6.441,0,0,1,26.337,35.414Z" transform="translate(-8.303 -17.62)" fill="#0090ff"/>
          <path id="Path_35" data-name="Path 35" d="M65.406,39.095H63.94v.937h1.416a.5.5,0,0,0,.5-.464h0a.459.459,0,0,0-.414-.5Z" transform="translate(-32.061 -19.57)" fill="#0090ff"/>
          <path id="Path_36" data-name="Path 36" d="M65.266,36.067a.459.459,0,0,0,.319-.359.454.454,0,0,0-.374-.5c-.409-.04-.828-.045-1.261-.07v1h1.167A.414.414,0,0,0,65.266,36.067Z" transform="translate(-32.066 -17.6)" fill="#0090ff"/>
          <path id="Path_37" data-name="Path 37" d="M93.745,20.348h0a.538.538,0,0,0-.5-.578h0c-.424-.055-.858-.05-1.306-.07v1.376c.459-.025.892-.025,1.326-.09A.568.568,0,0,0,93.745,20.348Z" transform="translate(-46.1 -9.858)" fill="#0090ff"/>
          <path id="Path_38" data-name="Path 38" d="M141.132,19.72A9.518,9.518,0,0,0,140,19.64v2.867h.922a1.417,1.417,0,0,0,.209-2.787Z" transform="translate(-70.199 -9.828)" fill="#0090ff"/>
          <path id="Path_39" data-name="Path 39" d="M111.794,21.343a1.4,1.4,0,0,0-.937-1.561,4.831,4.831,0,0,0-1.256-.075V22.54h.773A1.351,1.351,0,0,0,111.794,21.343Z" transform="translate(-54.956 -9.856)" fill="#0090ff"/>
          <path id="Path_40" data-name="Path 40" d="M64.85,21.821h1.182c-.2-.474-.389-.927-.6-1.441Z" transform="translate(-32.517 -10.199)" fill="#0090ff"/>
          <path id="Path_41" data-name="Path 41" d="M202.311,43.182a1.167,1.167,0,0,0-1.217-.588,1.142,1.142,0,0,0-.9.783,2.673,2.673,0,0,0,0,1.8,1.127,1.127,0,0,0,1.1.778,1.162,1.162,0,0,0,1.112-.768,2.378,2.378,0,0,0,.14-.912v-.239A1.92,1.92,0,0,0,202.311,43.182Z" transform="translate(-100.301 -21.329)" fill="#0090ff"/>
          <path id="Path_42" data-name="Path 42" d="M182.024,0H161.363a4.188,4.188,0,0,0-4.173,4.173v20.7a4.188,4.188,0,0,0,4.173,4.173h20.661a4.188,4.188,0,0,0,4.173-4.173V4.193A4.188,4.188,0,0,0,182.024,0ZM165.073,21.439a.8.8,0,0,0-1.047.409.654.654,0,0,0-.045.14,2.887,2.887,0,0,0-.12.853v2.388h-.783V20.7h.688v.628h0l.045-.06c.06-.095.115-.189.179-.279a.912.912,0,0,1,1-.379,1.5,1.5,0,0,1,.538.224c-.09.234-.174.469-.264.708Zm3.7,3.809s-.065-.04-.075-.07c-.045-.135-.075-.269-.115-.4v-.08l-.125.1a2.368,2.368,0,0,1-1.246.543,2.1,2.1,0,0,1-1.231-.184,1.276,1.276,0,0,1-.474-1.74,1.262,1.262,0,0,1,.349-.394,1.95,1.95,0,0,1,.9-.349c.5-.07.952-.145,1.431-.224a1.785,1.785,0,0,0,.279-.08.07.07,0,0,0,.055-.06,1.436,1.436,0,0,0-.05-.563.643.643,0,0,0-.389-.4,1.745,1.745,0,0,0-.843-.115,1.65,1.65,0,0,0-.274.04.833.833,0,0,0-.643.568c-.035.08-.06.165-.09.249l-.748-.1a1.81,1.81,0,0,1,.184-.553,1.366,1.366,0,0,1,.9-.7,3.226,3.226,0,0,1,1.87-.045,1.087,1.087,0,0,1,.873.9,3.672,3.672,0,0,1,.045.663v1.5a5.61,5.61,0,0,0,.06,1,3.326,3.326,0,0,0,.155.538Zm2.408.06a1.79,1.79,0,0,1-.429-.07.688.688,0,0,1-.5-.578,5.323,5.323,0,0,1-.05-.688V21.3h-.558v-.6h.558V19.659a.135.135,0,0,1,.04-.11l.733-.444v1.6h.768v.6h-.758v2.712a1.6,1.6,0,0,0,0,.309.3.3,0,0,0,.289.279h.464c.035.2.07.424.11.663a2.219,2.219,0,0,1-.628.05Zm1.645-.06h-.773V20.7h.758Zm0-5.415h-.773v-.887h.753Zm4.487,5.41h-.773V22.516a3.09,3.09,0,0,0-.04-.5.783.783,0,0,0-.688-.7,1.232,1.232,0,0,0-1.077.3,1,1,0,0,0-.314.638,3.359,3.359,0,0,0-.04.5v2.523h-.763V20.7h.683v.6h.03a.12.12,0,0,1,.03-.055,1.855,1.855,0,0,1,2.4-.394,1.212,1.212,0,0,1,.5.892,4.93,4.93,0,0,1,.04.663v2.717Zm.035-7.977h-2.912a.14.14,0,0,1-.155-.11l-1.167-3.041a.135.135,0,0,0-.15-.1h-5.484a.14.14,0,0,0-.155.11c-.364,1-.738,2.034-1.1,3.046-.025.065-.045.1-.13.1H163.1l.045-.12q1.994-5.135,3.989-10.281c.5-1.266,1-2.528,1.471-3.794a.135.135,0,0,1,.15-.1H171.6a.13.13,0,0,1,.145.095l3.65,9.119,1.994,4.986a.13.13,0,0,0,.04.1Zm4.437,7.449a5.146,5.146,0,0,1-.085,1,1.5,1.5,0,0,1-.942,1.212,2.613,2.613,0,0,1-2.084,0,1.182,1.182,0,0,1-.758-1.092v-.175l.738.11V25.8a.738.738,0,0,0,.648.658,1.755,1.755,0,0,0,.962,0,.942.942,0,0,0,.7-.808c.045-.289.045-.588.065-.882H181l-.05.04a1.78,1.78,0,0,1-2.523,0,1.805,1.805,0,0,1-.179-.209,2.688,2.688,0,0,1-.469-1.351,2.991,2.991,0,0,1,.309-1.6,1.83,1.83,0,0,1,2.313-.873,1.68,1.68,0,0,1,.588.414l.08.09h0v-.5h.708V20.9c.025,1.246.03,2.553.025,3.854Zm.065-16.289h-2.169v2.149H178.23v-2.1h-2.189V6.98h2.169V4.766h1.451V6.92h2.189Z" transform="translate(-78.818 0.02)" fill="#0090ff"/>
          <path id="Path_43" data-name="Path 43" d="M176.445,46.309c-.234.035-.469.085-.7.14a.633.633,0,0,0-.369.249.688.688,0,0,0,.155.962.738.738,0,0,0,.264.115,1.586,1.586,0,0,0,.937-.05,1.142,1.142,0,0,0,.8-.838,6.375,6.375,0,0,0,.08-.887h-.06A6.632,6.632,0,0,1,176.445,46.309Z" transform="translate(-87.872 -23.045)" fill="#0090ff"/>
          <path id="Path_44" data-name="Path 44" d="M181.335,12.71l-1.915,5.26h3.889l-1.949-5.255Z" transform="translate(-89.965 -6.353)" fill="#0090ff"/>
          <path id="Path_45" data-name="Path 45" d="M59.132,65.5,55.911,65,54.47,62.076a.14.14,0,0,0-.194-.04l-.04.04L52.795,65l-3.226.5a.125.125,0,0,0-.1.09.135.135,0,0,0,.035.135l2.328,2.269L51.279,71.2a.115.115,0,0,0,.055.125.11.11,0,0,0,.135,0l2.882-1.5,2.882,1.5H57.3a.1.1,0,0,0,.075,0,.135.135,0,0,0,.055-.125l-.553-3.211L59.2,65.726a.135.135,0,0,0-.07-.229Z" transform="translate(-24.8 -31.074)" fill="#0090ff"/>
          <path id="Path_46" data-name="Path 46" d="M83.351,65.5,80.13,65l-1.441-2.922a.145.145,0,0,0-.2-.04.15.15,0,0,0-.04.04L77.009,65l-3.221.5a.125.125,0,0,0-.1.09.135.135,0,0,0,.03.135l2.333,2.269L75.5,71.2a.12.12,0,0,0,.05.125.14.14,0,0,0,.14,0l2.882-1.5,2.882,1.5h.06a.11.11,0,0,0,.08,0,.12.12,0,0,0,.05-.125l-.548-3.211,2.333-2.274a.135.135,0,0,0,.03-.135A.125.125,0,0,0,83.351,65.5Z" transform="translate(-36.943 -31.074)" fill="#0090ff"/>
          <path id="Path_47" data-name="Path 47" d="M107.567,65.5l-3.226-.5L102.9,62.076a.14.14,0,0,0-.194-.04.15.15,0,0,0-.04.04L101.225,65,98,65.5a.13.13,0,0,0-.11.09.135.135,0,0,0,.035.135l2.333,2.269L99.709,71.2a.135.135,0,0,0,.055.125.11.11,0,0,0,.135,0l2.887-1.5,2.882,1.5h.06a.1.1,0,0,0,.075,0,.115.115,0,0,0,.055-.125l-.553-3.211,2.333-2.274a.125.125,0,0,0-.07-.219Z" transform="translate(-49.083 -31.074)" fill="#0090ff"/>
          <path id="Path_48" data-name="Path 48" d="M131.78,65.5,128.56,65l-1.441-2.922a.145.145,0,0,0-.2-.04.15.15,0,0,0-.04.04L125.438,65l-3.221.469a.131.131,0,0,0-.07.224l2.328,2.3-.548,3.211a.12.12,0,0,0,.05.125.14.14,0,0,0,.14,0l2.882-1.5,2.882,1.5h.06a.11.11,0,0,0,.08,0,.12.12,0,0,0,.05-.125l-.538-3.211,2.333-2.274a.129.129,0,0,0-.085-.219Z" transform="translate(-61.226 -31.074)" fill="#0090ff"/>
          <path id="Path_49" data-name="Path 49" d="M156.1,65.6a.125.125,0,0,0-.1-.09l-3.226-.5-1.441-2.922a.14.14,0,0,0-.194-.04.15.15,0,0,0-.04.04L149.645,65l-3.221.469a.155.155,0,0,0-.11.09.135.135,0,0,0,.035.135l2.338,2.3-.538,3.221a.135.135,0,0,0,.055.125.14.14,0,0,0,.14,0l2.882-1.5,2.882,1.5h.06a.11.11,0,0,0,.08,0,.12.12,0,0,0,.05-.125l-.563-3.221,2.328-2.274A.13.13,0,0,0,156.1,65.6Z" transform="translate(-73.362 -31.079)" fill="#0090ff"/>
          <path id="Path_50" data-name="Path 50" d="M31.24,86.18h1.321l1,2.937h0L34.5,86.18h1.321v4.268h-.863V87.421h0L33.9,90.448h-.728l-1.042-2.991h0v2.991H31.24Z" transform="translate(-15.664 -43.192)" fill="#0090ff"/>
          <path id="Path_51" data-name="Path 51" d="M43.391,88.366a1.63,1.63,0,1,1-1.6,1.665V90a1.526,1.526,0,0,1,1.4-1.635A1.267,1.267,0,0,1,43.391,88.366Zm0,2.623c.583,0,.753-.5.753-1s-.17-1-.753-1-.748.5-.748,1,.15,1,.748,1Z" transform="translate(-20.955 -44.287)" fill="#0090ff"/>
          <path id="Path_52" data-name="Path 52" d="M49.793,90.5c0,.364.324.5.653.5C50.685,91,51,90.9,51,90.6s-.359-.354-.962-.5c-.5-.115-1-.274-1-.828,0-.788.683-1,1.346-1s1.3.229,1.361,1h-.793c0-.329-.274-.419-.578-.419-.189,0-.5.03-.5.289s.5.344.962.459,1,.294,1,.868c0,.813-.713,1.077-1.411,1.077S49,91.316,49,90.5Z" transform="translate(-24.57 -44.245)" fill="#0090ff"/>
          <path id="Path_53" data-name="Path 53" d="M56.5,87.607h.618v.568H56.5v1.531c0,.289.07.359.359.359a.918.918,0,0,0,.259,0v.663a2.793,2.793,0,0,1-.5.03c-.528,0-1-.11-1-.733v-1.85h-.5v-.568h.5V86.68h.853Z" transform="translate(-27.638 -43.443)" fill="#0090ff"/>
          <path id="Path_54" data-name="Path 54" d="M63.46,86.18H64.4v1.635h1.73V86.18h.937v4.268h-.937V88.583H64.4v1.845H63.46Z" transform="translate(-31.82 -43.192)" fill="#0090ff"/>
          <path id="Path_55" data-name="Path 55" d="M73.873,90.448H72.816L71.43,86.18H72.4l.952,2.991h0l.962-2.991h.967Z" transform="translate(-35.816 -43.192)" fill="#0090ff"/>
          <path id="Path_56" data-name="Path 56" d="M80.62,86.18h.962l1.6,4.268h-.972l-.324-.952h-1.6l-.334.952H79Zm-.09,2.618h1.107L81.1,87.232h0Z" transform="translate(-39.612 -43.192)" fill="#0090ff"/>
          <path id="Path_57" data-name="Path 57" d="M90.8,87.493a.927.927,0,0,0-.917-.718c-.843,0-1.162.718-1.162,1.466s.319,1.426,1.162,1.426a.957.957,0,0,0,.967-.947h.907a1.795,1.795,0,0,1-1.84,1.765h-.035a2.059,2.059,0,0,1-2.1-2.024v-.194A2.09,2.09,0,0,1,89.884,86a1.74,1.74,0,0,1,1.825,1.5Z" transform="translate(-44.015 -43.099)" fill="#0090ff"/>
          <path id="Path_58" data-name="Path 58" d="M102.642,87.058h-1.73l-.17.952h0a1.077,1.077,0,0,1,.818-.324,1.291,1.291,0,0,1,1.316,1.266.947.947,0,0,1,0,.17,1.5,1.5,0,0,1-1.5,1.5h-.06a1.393,1.393,0,0,1-1.551-1.326h.848a.668.668,0,0,0,.688.628.758.758,0,0,0,.723-.793h0a.718.718,0,0,0-.648-.778h-.075a.7.7,0,0,0-.643.334h-.778l.414-2.313h2.338Z" transform="translate(-50.027 -43.288)" fill="#0090ff"/>
          <path id="Path_59" data-name="Path 59" d="M110.737,88.927c0,.568.444.788.942.788.329,0,.833-.095.833-.533s-.643-.528-1.266-.7-1.276-.424-1.276-1.212c0-.882.828-1.3,1.6-1.3.887,0,1.71.389,1.71,1.376h-.912c-.03-.5-.389-.643-.843-.643-.3,0-.643.125-.643.5s.2.374,1.271.643c.319.075,1.266.284,1.266,1.246,0,.783-.608,1.371-1.775,1.371-.942,0-1.835-.469-1.815-1.5Z" transform="translate(-55.071 -43.087)" fill="#0090ff"/>
          <path id="Path_60" data-name="Path 60" d="M118.776,87.607h.623v.568h-.623v1.531c0,.289.075.359.359.359a1.157,1.157,0,0,0,.264,0v.663a2.793,2.793,0,0,1-.5.03c-.5,0-.972-.11-.972-.733v-1.85h-.5v-.568h.5V86.68h.848Z" transform="translate(-58.882 -43.443)" fill="#0090ff"/>
          <path id="Path_61" data-name="Path 61" d="M122.04,89.407c.045-.793.758-1.037,1.451-1.037.618,0,1.356.14,1.356.882v1.605a1.555,1.555,0,0,0,.12.688H124.1a1.027,1.027,0,0,1-.06-.3,1.416,1.416,0,0,1-1.042.384c-.588,0-1.052-.294-1.052-.927,0-1.406,2.094-.653,2.059-1.346,0-.359-.249-.419-.548-.419a.5.5,0,0,0-.563.469Zm1.959.628a1.75,1.75,0,0,1-.708.179c-.259.045-.5.145-.5.454s.244.394.5.394a.633.633,0,0,0,.678-.558.8.8,0,0,0,0-.155Z" transform="translate(-61.148 -44.29)" fill="#0090ff"/>
          <path id="Path_62" data-name="Path 62" d="M129.085,88.455h.8v.573h0a1.082,1.082,0,0,1,1-.658.573.573,0,0,1,.184.03v.783a1.571,1.571,0,0,0-.3-.03c-.628,0-.838.439-.838,1v1.376h-.848Z" transform="translate(-64.723 -44.29)" fill="#0090ff"/>
          <path id="Path_63" data-name="Path 63" d="M137.25,86.178h2.3a1.177,1.177,0,0,1,1.246,1.1v.08a1.042,1.042,0,0,1-.693,1.072h0c.459.125.593.563.623,1a2.2,2.2,0,0,0,.179,1h-.942a5.669,5.669,0,0,1-.15-1c-.065-.449-.239-.643-.708-.643h-.942v1.665h-.937Zm.937,1.9h1.032c.424,0,.643-.179.643-.608s-.219-.593-.643-.593h-1.032Z" transform="translate(-68.81 -43.19)" fill="#0090ff"/>
          <path id="Path_64" data-name="Path 64" d="M146.284,90.17a.683.683,0,0,0,.758.783.693.693,0,0,0,.658-.384h.748A1.381,1.381,0,0,1,147,91.611a1.5,1.5,0,0,1-1.585-1.4,1.689,1.689,0,0,1,0-.224,1.556,1.556,0,0,1,1.5-1.635h.1a1.55,1.55,0,0,1,1.5,1.84Zm1.381-.5c-.08-.434-.264-.658-.678-.658a.668.668,0,0,0-.7.623v.035Z" transform="translate(-72.913 -44.28)" fill="#0090ff"/>
          <path id="Path_65" data-name="Path 65" d="M154.054,91.631h-.942L152.05,88.54h.892l.653,2.114h0l.653-2.114h.843Z" transform="translate(-76.241 -44.376)" fill="#0090ff"/>
          <path id="Path_66" data-name="Path 66" d="M159.778,86.878h-.848v-.7h.848Zm-.848.5h.848v3.091h-.848Z" transform="translate(-79.69 -43.192)" fill="#0090ff"/>
          <path id="Path_67" data-name="Path 67" d="M162.519,90.15c.025.543.279.783.758.783a.7.7,0,0,0,.673-.4h.743a1.376,1.376,0,0,1-1.446,1.042,1.5,1.5,0,0,1-1.581-1.406,1.614,1.614,0,0,1,0-.219,1.556,1.556,0,0,1,1.461-1.635h.115a1.547,1.547,0,0,1,1.5,1.84Zm1.381-.5c-.08-.434-.264-.658-.678-.658a.668.668,0,0,0-.7.623v.035Z" transform="translate(-81.061 -44.26)" fill="#0090ff"/>
          <path id="Path_68" data-name="Path 68" d="M172.109,91.631h-.9l-.548-2.074h0l-.548,2.074h-.878l-1-3.091h.877l.568,2.1h0l.5-2.1h.828l.578,2.094h0l.568-2.094h.873Z" transform="translate(-84.359 -44.376)" fill="#0090ff"/>
          <path id="Path_69" data-name="Path 69" d="M179.183,90.5c0,.364.324.5.653.5.239,0,.553-.095.553-.394s-.354-.354-.962-.5c-.5-.115-1-.274-1-.828,0-.788.678-1,1.346-1s1.3.229,1.361,1h-.808c0-.329-.274-.419-.578-.419-.194,0-.474.03-.474.289s.5.344.962.459,1,.294,1,.868c0,.813-.713,1.077-1.411,1.077s-1.426-.269-1.456-1.087Z" transform="translate(-89.438 -44.245)" fill="#0090ff"/>
          <path id="Path_70" data-name="Path 70" d="M185.14,89.53h.917v.917h-.937Zm.917-2.2-.229,1.845H185.4l-.224-1.845V86.18h.882Z" transform="translate(-92.823 -43.192)" fill="#0090ff"/>
        </g>
      </g>
    </g>
  </g>
</svg>
