<svg xmlns="http://www.w3.org/2000/svg" width="215.37" height="95.041" viewBox="0 0 215.37 95.041">
  <g id="Layer_2" data-name="Layer 2" transform="translate(0 0.04)">
    <g id="Layer_1" data-name="Layer 1">
      <g id="Layer_2-2" data-name="Layer 2">
        <g id="Layer_1-2" data-name="Layer 1-2">
          <path id="Path_28" data-name="Path 28" d="M148.22,1a8,8,0,0,0-3.13-.93,1.35,1.35,0,0,1-.34-.11H8.6C8.14.04,7.68.1,7.22.2A8.79,8.79,0,0,0,.66,5.61,14.51,14.51,0,0,0,.12,7.67,2.29,2.29,0,0,1,0,8V49.76c.08.4.13.79.23,1.2A8.59,8.59,0,0,0,6,57.32a8.84,8.84,0,0,0,3.18.51H143.71a9.34,9.34,0,0,0,5.34-1.48,8.1,8.1,0,0,0,3.66-5.51,1.39,1.39,0,0,1,.12-.28V7.28a1,1,0,0,1-.12-.23A8.2,8.2,0,0,0,148.22,1ZM117.46,17.7h2.11v9.72h-2.11Zm-18.52,0h6.8c.53,0,.53,0,.53.52v1c0,.5,0,.5-.5.5h-4.65v1.83h4.48v1.94h-4c-.51,0-.51,0-.51.49v1.41h4.74c.53,0,.53,0,.53.54v1.44H99ZM52,57H8.9a7.84,7.84,0,0,1-7.5-4.9,6.72,6.72,0,0,1-.57-2.76V8.65A7.45,7.45,0,0,1,4,2.58,8.46,8.46,0,0,1,9.28.86h43V57ZM68.34,42.7a5.3,5.3,0,0,1-1.63.32h-5v-9.7H66.4a3.8,3.8,0,0,1,2,.56,2.45,2.45,0,0,1,.6,3.41,3,3,0,0,1-.28.33c-.12.09-.23.2-.35.31a6.88,6.88,0,0,1,1,.78,2.53,2.53,0,0,1-.23,3.57,2.63,2.63,0,0,1-.79.47Zm.84-15.33a.54.54,0,0,1-.36-.3c-.28-.6-.53-1.22-.79-1.85H64c-.23.56-.49,1.15-.72,1.75a.54.54,0,0,1-.61.42H60.94a2.09,2.09,0,0,1,.11-.43c1.27-3,2.55-6,3.81-9a.59.59,0,0,1,.63-.4,11.22,11.22,0,0,0,1.16,0,.59.59,0,0,1,.63.4c.75,1.83,1.52,3.64,2.3,5.45.49,1.14,1,2.27,1.46,3.41l.22.58H69.19Zm10,11.76a5.41,5.41,0,0,1-.18,1.5A3.34,3.34,0,0,1,76.67,43a5.73,5.73,0,0,1-3.1.07,3.55,3.55,0,0,1-2.75-3.31v-6c0-.25,0-.46.34-.46H73v5a6.759,6.759,0,0,0,0,1.19,1.89,1.89,0,0,0,2.08,1.65A1.86,1.86,0,0,0,77,39.37V33.81c0-.53,0-.53.53-.53h1.65v.45c0,1.82.06,3.63,0,5.45Zm-1.64-11.8A5.5,5.5,0,0,1,74,27.28a4.74,4.74,0,0,1-3.13-4.1,4.88,4.88,0,0,1,1.6-4.4,4.78,4.78,0,0,1,3.18-1.24,5.44,5.44,0,0,1,3.29.8c.92.61.93.63.21,1.44l-.79.88h0c-.23-.16-.42-.32-.56-.43a2.82,2.82,0,0,0-3.74.13c-1.53,1.49-1,4.6,1.28,5.1a3,3,0,0,0,2.6-.64,1.35,1.35,0,0,1,.32-.26.47.47,0,0,1,.4,0c.43.34.83.74,1.27,1.14a4.45,4.45,0,0,1-2.39,1.67ZM86,42.75a5.28,5.28,0,0,1-3.83.17,5.41,5.41,0,0,1-2.36-1.34L81.12,40c.53.3,1,.62,1.49.84a3,3,0,0,0,1.94.25A1.61,1.61,0,0,0,85,41a.7.7,0,0,0,.34-.34A.69.69,0,0,0,85,39.7h0a8.631,8.631,0,0,0-1.31-.5c-.63-.22-1.27-.38-1.89-.62a2.3,2.3,0,0,1-1.54-2.17,2.75,2.75,0,0,1,1.2-2.63,4,4,0,0,1,2.65-.61,5.41,5.41,0,0,1,3.23,1.25c-.35.51-.68,1-1,1.51-.16.23-.34.06-.49,0a3.91,3.91,0,0,0-1.94-.73,4.45,4.45,0,0,0-.73,0,.83.83,0,0,0-.66.67.69.69,0,0,0,.44.76c.5.19,1,.34,1.53.52s1.08.33,1.59.55A2.41,2.41,0,0,1,87.63,40,2.71,2.71,0,0,1,86,42.75Zm1.09-15.58a5.3,5.3,0,0,1-4.75-.24,4.72,4.72,0,0,1-2.46-4.49,4.8,4.8,0,0,1,4.24-4.86,5.21,5.21,0,0,1,4.21,1l.31.28a1.43,1.43,0,0,1,.16.24l-1.39,1.58a3.58,3.58,0,0,0-2.94-1.05,2.63,2.63,0,0,0-1.66,1,3.21,3.21,0,0,0,.18,4,2.57,2.57,0,0,0,2.28.83,3.78,3.78,0,0,0,2.1-1.06l1.48,1.39a4.1,4.1,0,0,1-1.73,1.38ZM90.83,43h-2c-.09,0-.19-.15-.25-.26a.81.81,0,0,1,0-.31V33.88c0-.59,0-.59.58-.59h1.63ZM91.9,27.41H89.72V18.2c0-.53,0-.53.52-.53h4.09a4.14,4.14,0,0,1,1.92.42,2.73,2.73,0,0,1,1.6,2.46,6,6,0,0,1-.1,1.4,3,3,0,0,1-1.87,2l2.28,3.36-.07.12H96a.67.67,0,0,1-.68-.37c-.52-.8-1.08-1.6-1.6-2.39a.7.7,0,0,0-.69-.36H91.91ZM101,43H99.37a.9.9,0,0,1-.52-.36L95.3,38a3,3,0,0,0-.65-.69,2.671,2.671,0,0,0,0,.4V42.5c0,.57,0,.57-.55.57H92.43V33.32h1.9c.13,0,.28.19.37.32l3.91,5.13c.09.11.19.22.29.32V33.32H101Zm8.91-.23c0,.27-.18.27-.36.27H103c-.54,0-.54,0-.54-.52V33.79c0-.33.06-.5.46-.5h6.88v1.94h-5.06V37.1h4.48v2h-4.5V41h5.2Zm-.73-15.36h-1.89V18.28c0-.62,0-.62.6-.62h3.3a5,5,0,0,1,4.23,2,4.85,4.85,0,0,1-1.1,6.76,5,5,0,0,1-2.16.86,20.76,20.76,0,0,1-3,.16Zm7.35,15.26a5.36,5.36,0,0,1-4.28.11,4.6,4.6,0,0,1-2-1.24l1.16-1.38c.16-.2.3-.09.46,0a11.34,11.34,0,0,0,1.21.72,2.83,2.83,0,0,0,1.94.21,1.37,1.37,0,0,0,.7-.48l.06-.12a.63.63,0,0,0-.34-.81h0a11.57,11.57,0,0,0-1.39-.51c-.61-.22-1.23-.38-1.83-.61a2.33,2.33,0,0,1-1.56-2.22A2.74,2.74,0,0,1,112,33.73a4.18,4.18,0,0,1,2.72-.55,5.52,5.52,0,0,1,2.79,1c.24.19.32.31.1.58s-.62.88-.93,1.33c-.45-.21-.83-.44-1.25-.63a2.7,2.7,0,0,0-1.83-.24.79.79,0,0,0-.68.69.7.7,0,0,0,.52.76c.62.21,1.27.38,1.89.61A8.1,8.1,0,0,1,117,38a2.83,2.83,0,0,1-.44,4.66ZM126,40.38a2.62,2.62,0,0,1-1.59,2.39,5.41,5.41,0,0,1-3.84.15,5.89,5.89,0,0,1-2.34-1.34h0c.43-.54.87-1,1.28-1.52l1.11.69a3.42,3.42,0,0,0,2.28.42.88.88,0,0,0,.84-.73.86.86,0,0,0-.63-.86c-.47-.19-.8-.26-1.19-.4a19.71,19.71,0,0,1-2-.7,2.19,2.19,0,0,1-1.3-1.94,3,3,0,0,1,2.62-3.34h.38A5.68,5.68,0,0,1,125,34c.21.12.39.28.62.44l-1.13,1.69-.56-.31a3.78,3.78,0,0,0-1.81-.63,2.92,2.92,0,0,0-.72.06.79.79,0,0,0-.6.7.7.7,0,0,0,.48.73c.4.17.83.3,1.23.44.66.23,1.34.41,2,.69A2.41,2.41,0,0,1,126,40.38Zm2.57-20.66H125.7v7.69h-2.24V19.73h-3V17.68h8.05Zm8.18,7.69H129.4V17.69h7.31v2h-5.07v1.84h4.46v2h-4.5v1.93h5.1Zm5.77-.08c-1.53.18-3.1.11-4.71.15V17.71a4,4,0,0,1,.49,0h3.45a4.85,4.85,0,0,1,.77,9.66Z" fill="#fff"/>
          <path id="Path_29" data-name="Path 29" d="M25,18.72c1.65,1.16,3.28,2.35,4.93,3.55A3.47,3.47,0,0,1,31.52,25a3.62,3.62,0,0,1-.62,2.26l.47.33c.08-.1.13-.15.17-.21,1.37-1.91,2.76-3.82,4.15-5.72A6.34,6.34,0,0,0,37,18.14a6.18,6.18,0,0,0-2.63-5.61Q31,10,27.62,7.6A2.09,2.09,0,0,1,26.93,5c.05-.12.1-.24.14-.37l-.45-.28a1.51,1.51,0,0,0-.18.26C25.28,6.27,24.09,7.83,23,9.46a6.21,6.21,0,0,0-.62,6.22A7,7,0,0,0,25,18.72Z" fill="#fff"/>
          <path id="Path_30" data-name="Path 30" d="M21.35,28.71l4.32,3.15a1.15,1.15,0,0,1,.49,1.45,1.13,1.13,0,0,0,0,.26l.54.37a2.39,2.39,0,0,0,.22-.23c.73-1,1.46-2,2.17-3a4.37,4.37,0,0,0-.85-6c-.5-.39-1-.74-1.53-1.11l-3-2.2a1.11,1.11,0,0,1-.49-1.4l.09-.28-.59-.43L20.4,22.48l-.11.15a4.41,4.41,0,0,0,1.06,6.08Z" fill="#fff"/>
          <path id="Path_31" data-name="Path 31" d="M40.48,48l-.67-.37a2.309,2.309,0,0,1,.36-.25,2.7,2.7,0,0,0,.56-3.73,2.94,2.94,0,0,0-2.3-1.19c-1.81-.09-3.63-.09-5.44-.09-.54,0-.54,0-.54.56V53.36h5.69a6.71,6.71,0,0,0,1.93-.4,2.51,2.51,0,0,0,1.75-2.21A2.59,2.59,0,0,0,40.48,48Zm-5.66-3.5a1.67,1.67,0,0,1,.3-.08h2.77a1.11,1.11,0,0,1,1,1.21h0a.93.93,0,0,1-.52.84,1.78,1.78,0,0,1-.74.23H34.82Zm3.66,6.7a17,17,0,0,1-2.14.11H34.82V48.88a1.83,1.83,0,0,1,.4-.05h2.36a4.16,4.16,0,0,1,.93.12,1.13,1.13,0,0,1,1,1.19,1.06,1.06,0,0,1-1.03,1.1Z" fill="#fff"/>
          <path id="Path_32" data-name="Path 32" d="M30.37,48.26c-.34-.23-.68-.44-1-.64l.34-.26a2.78,2.78,0,0,0,.87-1.11,2.67,2.67,0,0,0-1.43-3.48,5.13,5.13,0,0,0-1.77-.4H22v11h6a4.26,4.26,0,0,0,2.19-.64A2.79,2.79,0,0,0,31,48.87a3,3,0,0,0-.55-.62Zm-6-3.75a2.38,2.38,0,0,1,.37-.06H27.2a1.12,1.12,0,0,1,1.19,1h0a1.06,1.06,0,0,1-.74,1.14,1.46,1.46,0,0,1-.51.12H24.33ZM29,50.2a1,1,0,0,1-.65.93,2.87,2.87,0,0,1-.91.21H24.33V48.92s.07-.07.1-.07c1.14,0,2.27,0,3.4.06H28a1.14,1.14,0,0,1,1,1.24Z" fill="#fff"/>
          <path id="Path_33" data-name="Path 33" d="M19.54,48l-.73-.4.19-.2a2.67,2.67,0,0,0-.69-4.78,7.35,7.35,0,0,0-1.8-.29H12c-.52,0-.52,0-.52.53V53.42h5.8A5.54,5.54,0,0,0,19.15,53a2.81,2.81,0,0,0,1.22-1.07,2.78,2.78,0,0,0-.8-3.85Zm-5.72-3.62a22.39,22.39,0,0,1,3.06.14h0a1,1,0,0,1,.94,1v.06a1.08,1.08,0,0,1-.91,1.11,1.53,1.53,0,0,1-.36.07H13.82Zm3.58,6.84a10.8,10.8,0,0,1-1.5.1H13.82V48.78a30.269,30.269,0,0,1,3.58.14A1.17,1.17,0,0,1,18.5,50a1.15,1.15,0,0,1-1.1,1.21Z" fill="#fff"/>
          <path id="Path_34" data-name="Path 34" d="M36.17,35.65c-.09-.39-.29-.47-.66-.47H17.89c-.66,0-.66,0-.85.63l-.48,1.59h5l1,3h7.75a.54.54,0,0,0,.61-.46h0c.26-.85.53-1.7.79-2.59h5a12.92,12.92,0,0,1-.54-1.7Z" fill="#fff"/>
          <path id="Path_35" data-name="Path 35" d="M66.88,39.12H63.94V41h2.84a1,1,0,0,0,1-.93h0a.92.92,0,0,0-.83-1Z" fill="#fff"/>
          <path id="Path_36" data-name="Path 36" d="M66.59,37a.92.92,0,0,0,.64-.72.91.91,0,0,0-.75-1c-.82-.08-1.66-.09-2.53-.14v2h2.34A.83.83,0,0,0,66.59,37Z" fill="#fff"/>
          <path id="Path_37" data-name="Path 37" d="M95.56,21h0a1.08,1.08,0,0,0-1-1.16h0c-.85-.11-1.72-.1-2.62-.14v2.76c.92-.05,1.79-.05,2.66-.18A1.14,1.14,0,0,0,95.56,21Z" fill="#fff"/>
          <path id="Path_38" data-name="Path 38" d="M142.27,19.8a19.09,19.09,0,0,0-2.27-.16v5.75h1.85a2.71,2.71,0,0,0,2.57-2.57A2.7,2.7,0,0,0,142.27,19.8Z" fill="#fff"/>
          <path id="Path_39" data-name="Path 39" d="M114,23a2.81,2.81,0,0,0-1.88-3.13,9.69,9.69,0,0,0-2.52-.15V25.4h1.55A2.71,2.71,0,0,0,114,23Z" fill="#fff"/>
          <path id="Path_40" data-name="Path 40" d="M64.85,23.27h2.37c-.4-.95-.78-1.86-1.2-2.89Z" fill="#fff"/>
          <path id="Path_41" data-name="Path 41" d="M204.6,43.79a2.34,2.34,0,0,0-2.44-1.18,2.29,2.29,0,0,0-1.81,1.57,5.36,5.36,0,0,0,0,3.62,2.26,2.26,0,0,0,2.21,1.56,2.33,2.33,0,0,0,2.23-1.54,4.77,4.77,0,0,0,.28-1.83v-.48A3.85,3.85,0,0,0,204.6,43.79Z" fill="#fff"/>
          <path id="Path_42" data-name="Path 42" d="M207,0H165.56a8.4,8.4,0,0,0-8.37,8.37V49.89a8.4,8.4,0,0,0,8.37,8.37H207a8.4,8.4,0,0,0,8.37-8.37V8.41A8.4,8.4,0,0,0,207,0ZM173,43a1.6,1.6,0,0,0-2.1.82,1.311,1.311,0,0,0-.09.28,5.79,5.79,0,0,0-.24,1.71V50.6H169V41.51h1.38v1.26h0l.09-.12c.12-.19.23-.38.36-.56a1.83,1.83,0,0,1,2-.76,3,3,0,0,1,1.08.45c-.18.47-.35.94-.53,1.42Zm7.42,7.64s-.13-.08-.15-.14c-.09-.27-.15-.54-.23-.81v-.16l-.25.2a4.75,4.75,0,0,1-2.5,1.09,4.21,4.21,0,0,1-2.47-.37,2.56,2.56,0,0,1-.95-3.49,2.53,2.53,0,0,1,.7-.79,3.91,3.91,0,0,1,1.8-.7c1-.14,1.91-.29,2.87-.45a3.58,3.58,0,0,0,.56-.16.14.14,0,0,0,.11-.12,2.88,2.88,0,0,0-.1-1.13,1.29,1.29,0,0,0-.78-.8,3.5,3.5,0,0,0-1.69-.23,3.31,3.31,0,0,0-.55.08,1.67,1.67,0,0,0-1.29,1.14c-.07.16-.12.33-.18.5l-1.5-.2a3.63,3.63,0,0,1,.37-1.11,2.74,2.74,0,0,1,1.81-1.4,6.47,6.47,0,0,1,3.75-.09,2.18,2.18,0,0,1,1.75,1.81,7.37,7.37,0,0,1,.09,1.33v3a11.251,11.251,0,0,0,.12,2,6.671,6.671,0,0,0,.31,1.08Zm4.83.12a3.59,3.59,0,0,1-.86-.14,1.38,1.38,0,0,1-1-1.16,10.668,10.668,0,0,1-.1-1.38V42.73h-1.12v-1.2h1.12v-2.1a.27.27,0,0,1,.08-.22l1.47-.89v3.2h1.54v1.2h-1.52v5.44a3.21,3.21,0,0,0,0,.62.6.6,0,0,0,.58.56h.93c.07.41.14.85.22,1.33a4.45,4.45,0,0,1-1.26.1Zm3.3-.12H187V41.51h1.52Zm0-10.86H187V38h1.51Zm9,10.85H196V45.16a6.19,6.19,0,0,0-.08-1,1.57,1.57,0,0,0-1.38-1.41,2.47,2.47,0,0,0-2.16.6,2,2,0,0,0-.63,1.28,6.738,6.738,0,0,0-.08,1v5.06h-1.53V41.51h1.37v1.21h.06a.24.24,0,0,1,.06-.11,3.72,3.72,0,0,1,4.82-.79,2.43,2.43,0,0,1,1,1.79,9.889,9.889,0,0,1,.08,1.33v5.45Zm.07-16h-5.84a.28.28,0,0,1-.31-.22l-2.34-6.1a.27.27,0,0,0-.3-.21h-11a.28.28,0,0,0-.31.22c-.73,2-1.48,4.08-2.21,6.11-.05.13-.09.2-.26.2h-6l.09-.24q4-10.3,8-20.62c1-2.54,2-5.07,2.95-7.61a.27.27,0,0,1,.3-.2h5.7a.26.26,0,0,1,.29.19l7.32,18.29,4,10a.26.26,0,0,0,.08.21Zm8.9,14.94a10.32,10.32,0,0,1-.17,2A3,3,0,0,1,204.46,54a5.24,5.24,0,0,1-4.18,0,2.37,2.37,0,0,1-1.52-2.19v-.35l1.48.22v.07a1.48,1.48,0,0,0,1.3,1.32,3.52,3.52,0,0,0,1.93,0,1.89,1.89,0,0,0,1.4-1.62c.09-.58.09-1.18.13-1.77h-.06l-.1.08a3.57,3.57,0,0,1-5.06,0,3.619,3.619,0,0,1-.36-.42,5.39,5.39,0,0,1-.94-2.71,6,6,0,0,1,.62-3.2,3.67,3.67,0,0,1,4.64-1.75,3.37,3.37,0,0,1,1.18.83l.16.18h0v-1h1.42v.23c.05,2.5.06,5.12.05,7.73Zm.13-32.67H202.3v4.31h-2.91V17H195V14h4.35V9.56h2.91v4.32h4.39Z" fill="#fff"/>
          <path id="Path_43" data-name="Path 43" d="M177.65,46.62c-.47.07-.94.17-1.4.28a1.27,1.27,0,0,0-.74.5,1.38,1.38,0,0,0,.31,1.93,1.48,1.48,0,0,0,.53.23,3.18,3.18,0,0,0,1.88-.1,2.29,2.29,0,0,0,1.61-1.68A12.79,12.79,0,0,0,180,46h-.12a13.3,13.3,0,0,1-2.23.62Z" fill="#fff"/>
          <path id="Path_44" data-name="Path 44" d="M183.26,12.71l-3.84,10.55h7.8l-3.91-10.54Z" fill="#fff"/>
          <path id="Path_45" data-name="Path 45" d="M68.86,69,62.4,68l-2.89-5.86a.28.28,0,0,0-.39-.08l-.08.08L56.15,68l-6.47,1a.25.25,0,0,0-.21.18.27.27,0,0,0,.07.27L54.21,74l-1.1,6.44a.23.23,0,0,0,.11.25.22.22,0,0,0,.27,0l5.78-3,5.78,3h.13a.19.19,0,0,0,.15,0,.27.27,0,0,0,.11-.25L64.33,74,69,69.46a.271.271,0,0,0-.14-.46Z" fill="#fff"/>
          <path id="Path_46" data-name="Path 46" d="M93.08,69l-6.46-1-2.89-5.86a.29.29,0,0,0-.4-.08.3.3,0,0,0-.08.08L80.36,68,73.9,69a.25.25,0,0,0-.21.18.27.27,0,0,0,.06.27L78.43,74l-1.1,6.44a.24.24,0,0,0,.1.25.28.28,0,0,0,.28,0l5.78-3,5.78,3h.12a.22.22,0,0,0,.16,0,.24.24,0,0,0,.1-.25L88.55,74l4.68-4.56a.27.27,0,0,0,.06-.27A.25.25,0,0,0,93.08,69Z" fill="#fff"/>
          <path id="Path_47" data-name="Path 47" d="M117.3,69l-6.47-1-2.89-5.86a.28.28,0,0,0-.39-.08.3.3,0,0,0-.08.08L104.58,68l-6.46,1a.26.26,0,0,0-.22.18.27.27,0,0,0,.07.27L102.65,74l-1.11,6.44a.27.27,0,0,0,.11.25.22.22,0,0,0,.27,0l5.79-3,5.78,3h.12a.19.19,0,0,0,.15,0,.23.23,0,0,0,.11-.25L112.76,74l4.68-4.56a.25.25,0,0,0-.14-.44Z" fill="#fff"/>
          <path id="Path_48" data-name="Path 48" d="M141.51,69l-6.46-1-2.89-5.86a.29.29,0,0,0-.4-.08.3.3,0,0,0-.08.08L128.79,68l-6.46.94a.262.262,0,0,0-.14.45L126.86,74l-1.1,6.44a.24.24,0,0,0,.1.25.28.28,0,0,0,.28,0l5.78-3,5.78,3h.12a.22.22,0,0,0,.16,0,.24.24,0,0,0,.1-.25L137,74l4.68-4.56a.258.258,0,0,0-.17-.44Z" fill="#fff"/>
          <path id="Path_49" data-name="Path 49" d="M165.94,69.19a.25.25,0,0,0-.21-.18l-6.47-1-2.89-5.86a.28.28,0,0,0-.39-.08.3.3,0,0,0-.08.08L153,68l-6.46.94a.31.31,0,0,0-.22.18.27.27,0,0,0,.07.27L151.08,74,150,80.46a.27.27,0,0,0,.11.25.28.28,0,0,0,.28,0l5.78-3,5.78,3h.12a.22.22,0,0,0,.16,0,.24.24,0,0,0,.1-.25L161.2,74l4.67-4.56a.26.26,0,0,0,.07-.25Z" fill="#fff"/>
          <path id="Path_50" data-name="Path 50" d="M31.24,86.18h2.65l2,5.89h0l1.89-5.89h2.65v8.56H38.7V88.67h0l-2.12,6.07H35.12l-2.09-6h0v6H31.24Z" fill="#fff"/>
          <path id="Path_51" data-name="Path 51" d="M45,88.37a3.27,3.27,0,1,1-3.2,3.34v-.06a3.06,3.06,0,0,1,2.81-3.28A2.54,2.54,0,0,1,45,88.37Zm0,5.26c1.17,0,1.51-1,1.51-2s-.34-2-1.51-2-1.5,1-1.5,2,.3,2,1.5,2Z" fill="#fff"/>
          <path id="Path_52" data-name="Path 52" d="M50.59,92.73c0,.73.65,1,1.31,1,.48,0,1.12-.19,1.12-.79s-.72-.71-1.93-1c-1-.23-2-.55-2-1.66,0-1.58,1.37-2,2.7-2s2.6.46,2.73,2H52.93c0-.66-.55-.84-1.16-.84-.38,0-1,.06-1,.58s1,.69,1.93.92,2,.59,2,1.74c0,1.63-1.43,2.16-2.83,2.16S49,94.37,49,92.73Z" fill="#fff"/>
          <path id="Path_53" data-name="Path 53" d="M57.88,88.54h1.24v1.14H57.88v3.07c0,.58.14.72.72.72a1.84,1.84,0,0,0,.52,0V94.8a5.6,5.6,0,0,1-1,.06c-1.06,0-2-.22-2-1.47V89.68h-1V88.54h1V86.68h1.71Z" fill="#fff"/>
          <path id="Path_54" data-name="Path 54" d="M63.46,86.18h1.88v3.28h3.47V86.18h1.88v8.56H68.81V91H65.34v3.7H63.46Z" fill="#fff"/>
          <path id="Path_55" data-name="Path 55" d="M76.33,94.74H74.21l-2.78-8.56h1.94l1.91,6h0l1.93-6h1.94Z" fill="#fff"/>
          <path id="Path_56" data-name="Path 56" d="M82.25,86.18h1.93l3.2,8.56H85.43l-.65-1.91h-3.2l-.67,1.91H79Zm-.18,5.25h2.22l-1.08-3.14h0Z" fill="#fff"/>
          <path id="Path_57" data-name="Path 57" d="M93.84,89A1.86,1.86,0,0,0,92,87.56c-1.69,0-2.33,1.44-2.33,2.94s.64,2.86,2.33,2.86a1.92,1.92,0,0,0,1.94-1.9h1.82A3.6,3.6,0,0,1,92.07,95H92a4.13,4.13,0,0,1-4.22-4.06v-.39C87.79,88,89.36,86,92,86a3.49,3.49,0,0,1,3.66,3Z" fill="#fff"/>
          <path id="Path_58" data-name="Path 58" d="M105.53,87.75h-3.47l-.34,1.91h0a2.16,2.16,0,0,1,1.64-.65A2.59,2.59,0,0,1,106,91.55a1.9,1.9,0,0,1,0,.34,3,3,0,0,1-3,3h-.12c-1.63,0-3.08-.9-3.11-2.66h1.7a1.34,1.34,0,0,0,1.38,1.26,1.52,1.52,0,0,0,1.45-1.59h0a1.44,1.44,0,0,0-1.3-1.56h-.15a1.4,1.4,0,0,0-1.29.67H100l.83-4.64h4.69Z" fill="#fff"/>
          <path id="Path_59" data-name="Path 59" d="M111.65,91.9c0,1.14.89,1.58,1.89,1.58.66,0,1.67-.19,1.67-1.07s-1.29-1.06-2.54-1.41-2.56-.85-2.56-2.43c0-1.77,1.66-2.6,3.21-2.6,1.78,0,3.43.78,3.43,2.76h-1.83c-.06-1-.78-1.29-1.69-1.29-.6,0-1.29.25-1.29,1s.4.75,2.55,1.29c.64.15,2.54.57,2.54,2.5,0,1.57-1.22,2.75-3.56,2.75-1.89,0-3.68-.94-3.64-3Z" fill="#fff"/>
          <path id="Path_60" data-name="Path 60" d="M120.13,88.54h1.25v1.14h-1.25v3.07c0,.58.15.72.72.72a2.32,2.32,0,0,0,.53,0V94.8a5.6,5.6,0,0,1-1,.06c-1,0-1.95-.22-1.95-1.47V89.68h-1V88.54h1V86.68h1.7Z" fill="#fff"/>
          <path id="Path_61" data-name="Path 61" d="M122.13,90.45c.09-1.59,1.52-2.08,2.91-2.08,1.24,0,2.72.28,2.72,1.77v3.22a3.12,3.12,0,0,0,.24,1.38h-1.73a2.06,2.06,0,0,1-.12-.6,2.84,2.84,0,0,1-2.09.77c-1.18,0-2.11-.59-2.11-1.86,0-2.82,4.2-1.31,4.13-2.7,0-.72-.5-.84-1.1-.84a1,1,0,0,0-1.13.94Zm3.93,1.26a3.51,3.51,0,0,1-1.42.36c-.52.09-1,.29-1,.91s.49.79,1,.79A1.27,1.27,0,0,0,126,92.65a1.611,1.611,0,0,0,0-.31Z" fill="#fff"/>
          <path id="Path_62" data-name="Path 62" d="M129.09,88.54h1.61v1.15h0a2.17,2.17,0,0,1,2-1.32,1.15,1.15,0,0,1,.37.06V90a3.15,3.15,0,0,0-.61-.06c-1.26,0-1.68.88-1.68,2V94.7h-1.7Z" fill="#fff"/>
          <path id="Path_63" data-name="Path 63" d="M137.27,86.18h4.62a2.36,2.36,0,0,1,2.5,2.2v.16A2.09,2.09,0,0,1,143,90.69h0c.92.25,1.19,1.13,1.25,2a4.42,4.42,0,0,0,.36,2h-1.89a11.371,11.371,0,0,1-.3-2c-.13-.9-.48-1.29-1.42-1.29h-1.89v3.34h-1.88ZM139.15,90h2.07c.85,0,1.29-.36,1.29-1.22s-.44-1.19-1.29-1.19h-2.07Z" fill="#fff"/>
          <path id="Path_64" data-name="Path 64" d="M147.16,92a1.37,1.37,0,0,0,1.52,1.57A1.39,1.39,0,0,0,150,92.8h1.5a2.77,2.77,0,0,1-2.9,2.09,3,3,0,0,1-3.18-2.81,3.383,3.383,0,0,1,0-.45,3.12,3.12,0,0,1,3-3.28h.21c2.11,0,3.14,1.78,3,3.69Zm2.77-1c-.16-.87-.53-1.32-1.36-1.32a1.34,1.34,0,0,0-1.41,1.25V91Z" fill="#fff"/>
          <path id="Path_65" data-name="Path 65" d="M156.07,94.74h-1.89l-2.13-6.2h1.79l1.31,4.24h0l1.31-4.24h1.69Z" fill="#fff"/>
          <path id="Path_66" data-name="Path 66" d="M160.63,87.58h-1.7v-1.4h1.7Zm-1.7,1h1.7v6.2h-1.7Z" fill="#fff"/>
          <path id="Path_67" data-name="Path 67" d="M163.38,92c.05,1.09.56,1.57,1.52,1.57a1.41,1.41,0,0,0,1.35-.81h1.49a2.76,2.76,0,0,1-2.9,2.09,3,3,0,0,1-3.17-2.82,3.23,3.23,0,0,1,0-.44,3.12,3.12,0,0,1,2.93-3.28h.23c2.11,0,3.15,1.78,3,3.69Zm2.77-1c-.16-.87-.53-1.32-1.36-1.32a1.34,1.34,0,0,0-1.41,1.25V91Z" fill="#fff"/>
          <path id="Path_68" data-name="Path 68" d="M176,94.74h-1.8l-1.1-4.16h0L172,94.74h-1.76l-2-6.2H170l1.14,4.21h0l1-4.21h1.66l1.16,4.2h0l1.14-4.2h1.75Z" fill="#fff"/>
          <path id="Path_69" data-name="Path 69" d="M180,92.73c0,.73.65,1,1.31,1,.48,0,1.11-.19,1.11-.79s-.71-.71-1.93-1c-1-.23-2-.55-2-1.66,0-1.58,1.36-2,2.7-2s2.6.46,2.73,2H182.3c0-.66-.55-.84-1.16-.84-.39,0-.95.06-.95.58s1,.69,1.93.92,2,.59,2,1.74c0,1.63-1.43,2.16-2.83,2.16s-2.86-.54-2.92-2.18Z" fill="#fff"/>
          <path id="Path_70" data-name="Path 70" d="M185.16,92.9H187v1.84h-1.88ZM187,88.48l-.46,3.7h-.86l-.45-3.7v-2.3H187Z" fill="#fff"/>
        </g>
      </g>
    </g>
  </g>
</svg>
