<svg xmlns="http://www.w3.org/2000/svg" width="121.53" height="151.75" viewBox="0 0 121.53 151.75">
  <g id="Layer_2" data-name="Layer 2" transform="translate(0.03 0.03)">
    <g id="Layer_1" data-name="Layer 1" transform="translate(-0.03 -0.03)">
      <path id="Path_71" data-name="Path 71" d="M464.464-.026q.761,2.333,1.52,4.666l.147.035L468.147.283h1.018c-.168,3.19-.335,6.381-.5,9.6h-1.148c.1-2.218.2-4.409.307-6.767-.16.27-.254.4-.32.545-.407.9-.8,1.813-1.217,2.7-.064.138-.235.224-.356.334-.107-.122-.269-.227-.316-.368-.352-1.061-.684-2.13-1.021-3.2h-.145c-.139,2.146-.279,4.292-.419,6.472h-1.009c0-.452-.018-.873,0-1.292l.393-7.678c.01-.223-.016-.447-.025-.669Z" transform="translate(-402.342 0.03)" fill="#fff"/>
      <path id="Path_72" data-name="Path 72" d="M-.026,426.072a3.178,3.178,0,0,1,.655-.09c2.535.144,5.07.3,7.607.456.131.008.262,0,.474,0,.075-.879.148-1.739.224-2.637l.883.056C9.706,426,9.6,428.1,9.488,430.22H8.634v-2.653c-.612-.045-1.165-.1-1.72-.122q-3.471-.153-6.944-.293Z" transform="translate(0.03 -368.271)" fill="#fff"/>
      <path id="Path_73" data-name="Path 73" d="M150.568,99.79c10.122.088,18.9,2.274,26.893,7.206a42.423,42.423,0,0,1,19.259,26.236,49.353,49.353,0,0,1,1.651,12.739,53.757,53.757,0,0,1-3.334,19.687c-4.411,11.279-12.282,19.242-23.3,24.146a48.756,48.756,0,0,1-16.008,4.012,49.983,49.983,0,0,1-26.116-4.592q-18.287-8.757-23.6-28.4a51.48,51.48,0,0,1-1.661-11.045,52.527,52.527,0,0,1,3.055-21.208,42.184,42.184,0,0,1,20.08-22.921,48.11,48.11,0,0,1,18.6-5.57C147.835,99.921,149.589,99.853,150.568,99.79Zm35.054,66.615V160.03h-5.448v-7.577H185.1v-6.214H180v-7.261h5.319v-1.811l4.4,2.551v-.8c0-1.125-.033-2.252.013-3.375a1.124,1.124,0,0,0-.655-1.166Q170,123.4,150.964,112.385a1.143,1.143,0,0,0-1.339.007q-12,7.21-24.026,14.38-7.24,4.324-14.485,8.647a1,1,0,0,0-.578,1.017c.033,1.034.007,2.07.013,3.105,0,.185.039.369.069.639l5.4-3.125.149.122v29.708h5.387V149.292l.121-.012,6.362,17.618H133.1V133.064h-5.205v19.595a1.419,1.419,0,0,1-.316-.6q-2.882-8.845-5.79-17.687c-.166-.5-.033-.706.383-.949q13.993-8.153,27.967-16.335a.814.814,0,0,1,.97,0q12.766,7.51,25.548,14.994a4.479,4.479,0,0,1,.393.292l-.035.141h-2.767v33.886Zm-42.58-33.56-6.4,33.906h5.077l1.179-5.99h5.686c.4,2.028.794,4.021,1.179,6h5.372c-.017-.169-.02-.3-.046-.431q-.679-3.439-1.361-6.878l-3.459-17.459c-.569-2.867-1.148-5.729-1.715-8.6-.055-.276-.08-.548-.453-.548ZM165.973,166.6V139.167h4.278v-6.189H156.232v6.407h3.986V166.6Z" transform="translate(-90.613 -86.712)" fill="#fff"/>
      <path id="Path_74" data-name="Path 74" d="M74.167,204.136c-.371,1.048-.393,1.056-1.292.917q-3.164-.483-6.331-.954a.553.553,0,0,0-.393.1l5.944,3.5c-.185.324-.359.628-.575,1.009l-8.28-4.93c.05-.122.075-.207.117-.284.445-.832.494-.842,1.414-.7,2.128.338,4.258.655,6.387.992l.067-.131-5.813-3.516.541-1.026Z" transform="translate(-54.951 -173.019)" fill="#fff"/>
      <path id="Path_75" data-name="Path 75" d="M828.175,563.955c.151-.393.276-.721.415-1.085l9.062,3.275c-.131.393-.245.728-.393,1.171l-7.452.333-.028.165,6.48,2.3-.383,1.1-9.018-3.258a.654.654,0,0,1-.013-.193c.355-1.022.355-1.029,1.557-1.078,1.842-.076,3.683-.14,5.524-.216a1.179,1.179,0,0,0,.655-.207Z" transform="translate(-718.51 -489.121)" fill="#fff"/>
      <path id="Path_76" data-name="Path 76" d="M783.193,192.39c.765,1.026.76,1.022.042,1.965q-1.9,2.489-3.784,5l.084.118,5.857-3.467c.2.314.386.609.62.979-2.758,1.647-5.5,3.285-8.3,4.95-.131-.189-.253-.347-.368-.506a.655.655,0,0,1,.041-.895c1.276-1.686,2.521-3.4,3.773-5.1a1.6,1.6,0,0,0,.324-.688q-2.948,1.769-5.938,3.549l-.607-.9Z" transform="translate(-673.406 -167.18)" fill="#fff"/>
      <path id="Path_77" data-name="Path 77" d="M82.336,668.146l-7.73,5.791-.769-.928,3.76-6.362-.131-.131-5.418,4.075-.668-.837L79.1,663.88l.759,1.014-3.826,6.392.1.094,5.487-4.13Z" transform="translate(-62.024 -576.897)" fill="#fff"/>
      <path id="Path_78" data-name="Path 78" d="M367.37,840.153l1.074.166q-.749,4.758-1.486,9.433c-1.013.182-1.179.08-1.4-.825q-.782-3.234-1.551-6.471l-.147-.017c-.349,2.227-.7,4.455-1.055,6.746l-1.078-.119c.506-3.209,1-6.35,1.508-9.556l1.179.249q.886,3.594,1.777,7.215l.131-.007C366.664,844.721,367.006,842.475,367.37,840.153Z" transform="translate(-314.333 -729.516)" fill="#fff"/>
      <path id="Path_79" data-name="Path 79" d="M156.607,108.663c.861.262,1.629.494,2.394.73.745.228,1.488.461,2.244.7-.586.9-.786.979-1.7.681-.96-.312-1.935-.587-2.875-.951a.96.96,0,0,0-1.233.262,2.609,2.609,0,0,1-.542.355l2.762,3.059-.835.744-6.489-7.164a13.7,13.7,0,0,1,2.834-2.347,2.525,2.525,0,0,1,2.793.578A2.748,2.748,0,0,1,156.607,108.663Zm-4.785-1.7,2.554,2.808c.413-.424.786-.786,1.127-1.161a1.85,1.85,0,0,0-2.288-2.729C152.767,106.214,152.336,106.567,151.822,106.968Z" transform="translate(-130.63 -90.826)" fill="#fff"/>
      <path id="Path_80" data-name="Path 80" d="M586.312,29.611q.435,2.333.87,4.68c-.989-.092-1.179-.253-1.349-1.115-.194-1.015-.428-2.026-.557-3.049a.967.967,0,0,0-.832-.946,5.708,5.708,0,0,1-.59-.208c-.449,1.217-.9,2.424-1.356,3.668l-1.078-.33c1.112-3.006,2.213-5.984,3.353-9.061a11.217,11.217,0,0,1,3.44,1.478c1.608,1.3.54,4.02-.821,4.516C587.059,29.366,586.72,29.473,586.312,29.611Zm-.857-5.11c-.427,1.194-.836,2.341-1.256,3.516.524.177.959.364,1.414.466a1.988,1.988,0,0,0,.976.009,1.954,1.954,0,0,0,1.281-1.813,1.621,1.621,0,0,0-.99-1.615c-.439-.212-.907-.364-1.424-.566Z" transform="translate(-505.24 -20.2)" fill="#fff"/>
      <path id="Path_81" data-name="Path 81" d="M45.3,607.93,45.82,609l-3.781,1.877,1.339,2.846,3.87-1.834.5,1L39,617.093c-.183-.363-.333-.655-.5-.994l4.029-1.948L41.111,611.3l-3.953,1.914-.508-.992Z" transform="translate(-31.844 -528.277)" fill="#fff"/>
      <path id="Path_82" data-name="Path 82" d="M262.711,35.207l-1.834-3.784,1-.5,4.286,8.647-.993.512-1.948-3.942-2.943,1.344c.677,1.363,1.331,2.681,2.006,4.043l-1.077.5c-1.4-2.93-2.791-5.815-4.2-8.739l1-.524,1.863,3.857Z" transform="translate(-223.325 -26.865)" fill="#fff"/>
      <path id="Path_83" data-name="Path 83" d="M289.948,835.018l-1.061-.38c.021-.46.05-.917.06-1.385s0-.935,0-1.479l-2.771-.988L285,832.431c-.48.675-.486.679-1.249.359-.1-.042-.193-.1-.349-.173,2-2.728,3.966-5.421,5.955-8.137l1.342.5Zm-.436-8.555-.168-.046-2.5,3.53,2.267.836C289.243,829.288,289.381,827.875,289.512,826.462Z" transform="translate(-246.266 -716.455)" fill="#fff"/>
      <path id="Path_84" data-name="Path 84" d="M117.547,157.759a4.622,4.622,0,0,1-3.036-1.243,10.961,10.961,0,0,1-2.834-3.028,2.712,2.712,0,0,1,1.858-4.232,3.7,3.7,0,0,1,2.534.752,10.289,10.289,0,0,1,3.371,3.254c.877,1.378.93,2.358.075,3.488A2.221,2.221,0,0,1,117.547,157.759Zm1.583-2.56a3.567,3.567,0,0,0-.313-.859,10.877,10.877,0,0,0-4.365-3.889,1.429,1.429,0,0,0-1.929.546,1.656,1.656,0,0,0,.3,2.264,36.935,36.935,0,0,0,3.1,2.868,3.2,3.2,0,0,0,1.34.57A1.56,1.56,0,0,0,119.129,155.2Z" transform="translate(-96.639 -129.668)" fill="#fff"/>
      <path id="Path_85" data-name="Path 85" d="M735.093,156.754c-.131-.117-.217-.186-.295-.262-.582-.605-.58-.607-.131-1.294.352-.548.7-1.094,1.093-1.7l-2.015-2.285-2.539,1.253-.836-.909,9.09-4.383.937.994Zm1.255-4.2,2.411-3.7-.1-.107-3.987,1.952C735.25,151.34,735.756,151.9,736.348,152.553Z" transform="translate(-634.675 -127.884)" fill="#fff"/>
      <path id="Path_86" data-name="Path 86" d="M404.709,11.055c-.343,0-.565-.013-.786,0a.457.457,0,0,1-.524-.393c-.207-.641-.451-1.27-.655-1.912a.424.424,0,0,0-.531-.356c-.693.063-1.391.079-2.088.094a.6.6,0,0,0-.668.579c-.069.489-.193.968-.29,1.453-.181.892-.337.99-1.327.8q1.081-4.855,2.16-9.71l1.441-.114C402.505,4.625,403.585,7.777,404.709,11.055ZM402.272,7.36c-.466-1.424-.9-2.766-1.343-4.107l-.147.008-.95,4.282Z" transform="translate(-345.712 -1.3)" fill="#fff"/>
      <path id="Path_87" data-name="Path 87" d="M849.31,323.525a2.5,2.5,0,0,1,2.61-2.635,2.67,2.67,0,1,1-2.61,2.635Z" transform="translate(-738.032 -278.844)" fill="#fff"/>
      <path id="Path_88" data-name="Path 88" d="M34.81,326.285a2.6,2.6,0,1,1,5.2-.033,2.5,2.5,0,0,1-2.62,2.687A2.463,2.463,0,0,1,34.81,326.285Z" transform="translate(-30.245 -281.242)" fill="#fff"/>
      <path id="Path_89" data-name="Path 89" d="M854.076,439.79v3.958h3.257v-2.781h.972v2.882h3.511V439.88h1.056c-.056,1.7-.113,3.385-.172,5.161l-9.581-.152v-5.1Z" transform="translate(-741.343 -382.166)" fill="#fff"/>
      <path id="Path_90" data-name="Path 90" d="M560.518,837.157l-1.146.334c.2-1.31.31-2.561.6-3.773a2.562,2.562,0,0,0-.751-2.762c-.865-.811-1.608-1.808-2.409-2.729,1-.487,1.038-.482,1.682.242l1.931,2.181c.106-.561.2-1,.271-1.441a9.924,9.924,0,0,0,.229-1.53c.008-.611.324-.828.85-.9.107-.014.212-.047.409-.093-.11.757-.207,1.461-.317,2.163-.131.82-.242,1.646-.411,2.458a.985.985,0,0,0,.27.967c.917,1.017,1.812,2.061,2.713,3.095.131.149.249.308.434.536l-1.128.333-2.62-2.915C560.911,834.674,560.72,835.886,560.518,837.157Z" transform="translate(-483.855 -718.376)" fill="#fff"/>
      <path id="Path_91" data-name="Path 91" d="M801.922,625.664l2.923,1.423,1.281-2.576.806.426-1.22,2.577,3.089,1.511,1.788-3.684.917.481c-.755,1.542-1.491,3.047-2.269,4.635l-8.748-4.2,2.248-4.592.917.417C803.076,623.277,802.514,624.434,801.922,625.664Z" transform="translate(-695.608 -540.208)" fill="#fff"/>
      <path id="Path_92" data-name="Path 92" d="M679.416,774.665l3.194-2.425.609.726-4.136,3.223-5.8-7.75,4.033-3.109.677.743-3.2,2.454,1.923,2.6,2.269-1.732.6.711-2.256,1.8Z" transform="translate(-585.065 -665.055)" fill="#fff"/>
      <path id="Path_93" data-name="Path 93" d="M10.091,492.251l-3.167.335c.094.95.187,1.874.286,2.867l-.964.113c-.123-.943-.237-1.826-.363-2.8l-3.433.393c.161,1.364.316,2.67.481,4.062l-.983.065c-.2-1.7-.386-3.355-.588-5.11L10.931,491c.227,1.677.448,3.311.679,5.009l-.975.214C10.456,494.911,10.284,493.635,10.091,492.251Z" transform="translate(-1.178 -426.667)" fill="#fff"/>
      <path id="Path_94" data-name="Path 94" d="M526.24,14.551l3.931,1.022c-.064.313-.121.584-.191.917l-5.08-1.263c.786-3.1,1.551-6.158,2.348-9.327l4.935,1.158c-.067.345-.131.655-.2,1.008l-3.9-1-.755,3.181,2.776.7c-.081.32-.156.607-.248.968l-2.78-.719C526.8,12.315,526.532,13.393,526.24,14.551Z" transform="translate(-456.125 -5.123)" fill="#fff"/>
      <path id="Path_95" data-name="Path 95" d="M497.28,843.777l5.014-.677c.064.33.121.628.189.985l-4.03.524c.139,1.07.27,2.086.413,3.18l2.859-.292.157.959-2.834.368c.131,1.154.27,2.273.409,3.442l3.988-.482a3.752,3.752,0,0,1,.071.393c.01.131,0,.262,0,.5l-5.057.68C498.069,850.183,497.681,847.031,497.28,843.777Z" transform="translate(-432.124 -732.636)" fill="#fff"/>
      <path id="Path_96" data-name="Path 96" d="M630.674,810.664a2.441,2.441,0,0,1-1.834,3.616c-1.505.345-2.521-.468-3.363-1.694a24.605,24.605,0,0,1-1.424-2.669,5.462,5.462,0,0,1-.485-3.021A2.386,2.386,0,0,1,625.109,805a2.178,2.178,0,0,1,3.165.973c-.145.089-.287.186-.438.262s-.32.149-.47.217a1.051,1.051,0,0,1-.187-.131,1.279,1.279,0,0,0-1.534-.524,1.808,1.808,0,0,0-1.048,1.6,6.1,6.1,0,0,0,.291,1.5,10.686,10.686,0,0,0,2.215,3.887,1.639,1.639,0,0,0,2.143.237,1.28,1.28,0,0,0,.557-1.217C629.749,810.91,629.765,810.91,630.674,810.664Z" transform="translate(-541.841 -699.237)" fill="#fff"/>
      <path id="Path_97" data-name="Path 97" d="M849.135,503.65c-.054.449-.092.77-.131,1.118-.786.043-1.365.305-1.525,1.1a1.6,1.6,0,0,0,.865,1.8,12.3,12.3,0,0,0,2.546.81,15.812,15.812,0,0,0,2.81.168,1.931,1.931,0,0,0,1.063-.345,1.475,1.475,0,0,0-.232-2.65c-.117-.062-.245-.1-.427-.17.062-.349.123-.692.183-1.032a2.5,2.5,0,0,1,2.054,3.375,2.8,2.8,0,0,1-2.463,1.917,9.981,9.981,0,0,1-6.173-1.179,2.542,2.542,0,0,1-1.242-2.639,2.311,2.311,0,0,1,1.484-2.066A6.121,6.121,0,0,1,849.135,503.65Z" transform="translate(-735.539 -437.659)" fill="#fff"/>
      <path id="Path_98" data-name="Path 98" d="M180.708,767.573l-.786-.637a4.475,4.475,0,0,0,.01-1.454,1.545,1.545,0,0,0-2.44-.552,9.562,9.562,0,0,0-2.957,3.358,3.368,3.368,0,0,0-.6,1.756,1.466,1.466,0,0,0,.777,1.391,1.393,1.393,0,0,0,1.572-.182,3.332,3.332,0,0,1,.424-.249l.861.635c-.968,1.048-2.179,1.412-3.159.773-1.283-.836-1.77-1.441-1.495-3.079a7.173,7.173,0,0,1,1.511-2.977,8.287,8.287,0,0,1,2.644-2.461,2.592,2.592,0,0,1,2.865.131,2.23,2.23,0,0,1,1.173,2.315A8.32,8.32,0,0,1,180.708,767.573Z" transform="translate(-150.194 -663.488)" fill="#fff"/>
      <path id="Path_99" data-name="Path 99" d="M704.462,99.165l-.822-.59c.037-.107.068-.207.1-.305a1.249,1.249,0,0,0-.4-1.562,1.493,1.493,0,0,0-1.7-.217,3.747,3.747,0,0,0-.786.512,10.94,10.94,0,0,0-2.965,4.115,1.583,1.583,0,0,0,.162,1.608,1.4,1.4,0,0,0,2.06.393c.17-.106.337-.217.542-.351l.778.612a2.384,2.384,0,0,1-2.93.947,3.08,3.08,0,0,1-1.77-2.649,4.678,4.678,0,0,1,.806-2.4,10.78,10.78,0,0,1,2.945-3.383,2.769,2.769,0,0,1,3.447-.051A2.346,2.346,0,0,1,704.462,99.165Z" transform="translate(-605.441 -82.784)" fill="#fff"/>
      <path id="Path_100" data-name="Path 100" d="M20.058,561.933c-2.31.4-3.473-.971-3.338-2.945a2.629,2.629,0,0,1,1.319-2.01,10.9,10.9,0,0,1,4.947-1.61,6.142,6.142,0,0,1,1.211.038,2.587,2.587,0,0,1,2.382,2.209,2.235,2.235,0,0,1-1.614,2.729c-.107-.33-.214-.662-.307-.947.046-.081.052-.109.068-.119.844-.511,1.023-.812.869-1.462a1.733,1.733,0,0,0-1.665-1.4,8.542,8.542,0,0,0-3.041.507c-.428.131-.842.314-1.271.444a3.248,3.248,0,0,0-1.572,1.106,1.476,1.476,0,0,0,.655,2.319,8.413,8.413,0,0,0,1.048.194Z" transform="translate(-14.516 -482.589)" fill="#fff"/>
      <path id="Path_101" data-name="Path 101" d="M204.3,68.76l-1,.59L198.852,61.9l-2.276,1.394L196,62.375l5.538-3.275.5.823L199.789,61.3Z" transform="translate(-170.317 -51.353)" fill="#fff"/>
      <path id="Path_102" data-name="Path 102" d="M124.545,719.415l-5.78,5.276.892.946-.743.655-2.514-2.764.752-.668.816.932,5.723-5.131-.811-.943.768-.677,2.423,2.751c-.229.244-.419.448-.683.73Z" transform="translate(-101.146 -623.092)" fill="#fff"/>
      <path id="Path_103" data-name="Path 103" d="M236.432,805.674c-.152.326-.273.587-.4.87l-3.347-1.589.393-.869,1.194.524c1.116-2.316,2.221-4.605,3.347-6.944l-1.154-.544.5-.892,3.253,1.594-.4.882-1.106-.532c-1.146,2.316-2.282,4.613-3.433,6.944Z" transform="translate(-202.191 -691.907)" fill="#fff"/>
      <path id="Path_104" data-name="Path 104" d="M648.634,56.115l-1.061-.7c.156-.262.308-.524.493-.842,1.072.647,2.1,1.271,3.184,1.922l-.493.841-1.195-.632-3.93,6.522c.352.237.677.456,1.061.717-.157.262-.3.5-.5.827L643,62.849c.174-.295.329-.554.5-.841l1.2.624Z" transform="translate(-558.752 -47.416)" fill="#fff"/>
      <path id="Path_105" data-name="Path 105" d="M773.7,704.179l2.374-3.375.82.6-3.023,4.288-7.976-5.541c.219-.3.419-.584.666-.925Z" transform="translate(-665.55 -607.615)" fill="#fff"/>
      <path id="Path_106" data-name="Path 106" d="M735.919,747.782,729,741.11l.862-.81,6.1,5.917,3.054-2.965.587.679Z" transform="translate(-633.485 -643.304)" fill="#fff"/>
      <path id="Path_107" data-name="Path 107" d="M793.862,850.612a3.815,3.815,0,0,1-3.979,3.944,3.77,3.77,0,0,1-3.89-4.02,3.725,3.725,0,0,1,3.91-3.868A3.765,3.765,0,0,1,793.862,850.612ZM789.9,847.28a3.307,3.307,0,0,0-3.3,3.3,3.21,3.21,0,0,0,3.329,3.319,3.172,3.172,0,0,0,3.29-3.275,3.283,3.283,0,0,0-3.323-3.345Z" transform="translate(-683.01 -735.737)" fill="#fff"/>
      <path id="Path_108" data-name="Path 108" d="M404.28,441.073c.645-4.356,1.281-8.659,1.917-12.962l.16-.012,2.244,12.971Z" transform="translate(-351.309 -372.008)" fill="#fff"/>
      <path id="Path_109" data-name="Path 109" d="M803.955,863.636v1.659l-.635.039v-4.177c.734,0,1.441-.046,2.153.013a1.075,1.075,0,0,1,1.048,1.03c.046.557-.193.886-.82,1.15-.06.026-.117.058-.225.113.227.3.449.569.655.856s.393.592.6.9c-.687.223-.668.212-1.006-.35a4.587,4.587,0,0,0-.765-1.01,3.146,3.146,0,0,0-.841-.393Zm.022-.633a6.193,6.193,0,0,0,1.294-.131.89.89,0,0,0,.511-.6c.024-.139-.305-.453-.515-.5a6.878,6.878,0,0,0-1.29-.024Z" transform="translate(-698.068 -748.313)" fill="#fff"/>
      <path id="Path_110" data-name="Path 110" d="M220.111,974.776a1.961,1.961,0,0,0-1.965-1.572c-1.77,0-2.436,1.507-2.436,3.076,0,1.495.666,3,2.436,3a2.011,2.011,0,0,0,2.035-2.008h1.908a3.772,3.772,0,0,1-3.942,3.668,4.331,4.331,0,0,1-4.406-4.658c0-2.661,1.644-4.732,4.406-4.732a3.641,3.641,0,0,1,3.868,3.226Z" transform="translate(-185.733 -844.257)" fill="#fff"/>
      <path id="Path_111" data-name="Path 111" d="M287.76,973.18h6.7v1.656h-4.732v1.921h4.348v1.533h-4.348v2.2h4.833v1.656H287.76Z" transform="translate(-250.055 -845.673)" fill="#fff"/>
      <path id="Path_112" data-name="Path 112" d="M349.85,973.18h4.835a2.459,2.459,0,0,1,2.62,2.472,2.192,2.192,0,0,1-1.418,2.248v.025c.966.262,1.242,1.179,1.31,2.1a4.688,4.688,0,0,0,.377,2.121H355.6a10.73,10.73,0,0,1-.313-2.146c-.139-.942-.5-1.356-1.495-1.356h-1.965v3.5h-1.965Zm1.965,4.062h2.159c.891,0,1.356-.377,1.356-1.281,0-.866-.465-1.242-1.356-1.242h-2.153Z" transform="translate(-304.01 -845.673)" fill="#fff"/>
      <path id="Path_113" data-name="Path 113" d="M416.357,974.836H413.67V973.18h7.345v1.656h-2.687v7.307h-1.965Z" transform="translate(-359.468 -845.673)" fill="#fff"/>
      <path id="Path_114" data-name="Path 114" d="M477.58,973.18h1.972v8.963H477.58Z" transform="translate(-415.005 -845.673)" fill="#fff"/>
      <path id="Path_115" data-name="Path 115" d="M505.85,973.18h6.308v1.656H507.82v2.073h3.754v1.532H507.82v3.7h-1.965Z" transform="translate(-439.571 -845.673)" fill="#fff"/>
      <path id="Path_116" data-name="Path 116" d="M562.67,973.18h1.965v8.963H562.67Z" transform="translate(-488.947 -845.673)" fill="#fff"/>
      <path id="Path_117" data-name="Path 117" d="M590.94,973.18h6.7v1.656h-4.731v1.921h4.345v1.533h-4.345v2.2h4.833v1.656H590.94Z" transform="translate(-513.513 -845.673)" fill="#fff"/>
      <path id="Path_118" data-name="Path 118" d="M653,973.18h3.866c2.323,0,4.068,1.469,4.068,4.431,0,2.6-1.331,4.532-4.068,4.532H653Zm1.965,7.307h1.758c1.142,0,2.227-.7,2.227-2.687,0-1.808-.639-2.964-2.586-2.964h-1.39Z" transform="translate(-567.442 -845.673)" fill="#fff"/>
      <path id="Path_119" data-name="Path 119" d="M137.69,1089.817H135v-1.657h7.345v1.657H139.66v7.307H137.7Z" transform="translate(-117.309 -945.589)" fill="#fff"/>
      <path id="Path_120" data-name="Path 120" d="M198.94,1088.16h6.7v1.657h-4.731v1.921h4.343v1.532h-4.343v2.2h4.833v1.657H198.94Z" transform="translate(-172.872 -945.589)" fill="#fff"/>
      <path id="Path_121" data-name="Path 121" d="M264.425,1089.757a1.958,1.958,0,0,0-1.959-1.572c-1.77,0-2.436,1.507-2.436,3.076,0,1.494.666,3,2.436,3a2.011,2.011,0,0,0,2.033-2.009h1.909a3.772,3.772,0,0,1-3.942,3.668,4.331,4.331,0,0,1-4.406-4.658c0-2.662,1.644-4.734,4.406-4.734a3.645,3.645,0,0,1,3.866,3.227Z" transform="translate(-224.246 -944.172)" fill="#fff"/>
      <path id="Path_122" data-name="Path 122" d="M332,1088.16h1.965v3.441h3.629v-3.441h1.965v8.964h-1.965v-3.868h-3.629v3.868H332Z" transform="translate(-288.499 -945.589)" fill="#fff"/>
      <path id="Path_123" data-name="Path 123" d="M403,1088.16h1.965l3.742,6.014h.025v-6.014h1.846v8.964H408.6l-3.729-6h-.025v6H403Z" transform="translate(-350.196 -945.589)" fill="#fff"/>
      <path id="Path_124" data-name="Path 124" d="M474,1088.16h1.965v8.964H474Z" transform="translate(-411.894 -945.589)" fill="#fff"/>
      <path id="Path_125" data-name="Path 125" d="M505.7,1089.757a1.959,1.959,0,0,0-1.959-1.572c-1.77,0-2.436,1.507-2.436,3.076,0,1.494.666,3,2.436,3a2.011,2.011,0,0,0,2.033-2.009h1.909a3.774,3.774,0,0,1-3.942,3.668,4.332,4.332,0,0,1-4.407-4.658c0-2.662,1.646-4.734,4.407-4.734a3.645,3.645,0,0,1,3.866,3.227Z" transform="translate(-433.905 -944.172)" fill="#fff"/>
      <path id="Path_126" data-name="Path 126" d="M573.31,1088.16h1.965v8.964H573.31Z" transform="translate(-498.193 -945.589)" fill="#fff"/>
      <path id="Path_127" data-name="Path 127" d="M597.693,1088.16h2.022l3.351,8.964h-2.046l-.677-2h-3.353l-.7,2h-2Zm-.189,5.5h2.323l-1.129-3.289h-.026Z" transform="translate(-516.424 -945.589)" fill="#fff"/>
      <path id="Path_128" data-name="Path 128" d="M667.21,1088.16h1.959l3.742,6.014h.025v-6.014h1.846v8.964h-1.965l-3.729-6h-.025v6H667.21Z" transform="translate(-579.79 -945.589)" fill="#fff"/>
      <path id="Path_129" data-name="Path 129" d="M735.805,1092.732c0,1.192.929,1.657,1.984,1.657.69,0,1.745-.2,1.745-1.118,0-.979-1.356-1.118-2.662-1.482-1.331-.326-2.674-.891-2.674-2.548,0-1.846,1.733-2.712,3.353-2.712,1.871,0,3.59.816,3.59,2.882h-1.908c-.063-1.066-.816-1.356-1.77-1.356-.629,0-1.356.262-1.356,1.017,0,.691.427.786,2.674,1.356.666.151,2.661.591,2.661,2.611,0,1.646-1.28,2.882-3.729,2.882-1.984,0-3.853-.98-3.817-3.189Z" transform="translate(-637.739 -944.172)" fill="#fff"/>
    </g>
  </g>
</svg>
