<svg xmlns="http://www.w3.org/2000/svg" width="72.297" height="90.275" viewBox="0 0 72.297 90.275">
  <g id="Layer_1" data-name="Layer 1" transform="translate(0 0)">
    <path id="Path_71" data-name="Path 71" d="M463.874-.028q.453,1.388.9,2.775l.087.021,1.2-2.613h.606c-.1,1.9-.2,3.8-.3,5.712h-.683c.058-1.32.118-2.623.182-4.026-.1.161-.151.238-.19.324-.242.533-.476,1.079-.724,1.609-.038.082-.14.133-.212.2-.064-.072-.16-.135-.188-.219-.21-.631-.407-1.267-.607-1.9h-.087c-.083,1.277-.166,2.553-.249,3.85h-.6c0-.269-.011-.519,0-.768l.234-4.567c.006-.132-.009-.266-.015-.4Z" transform="translate(-426.918 0.03)" fill="#0090ff"/>
    <path id="Path_72" data-name="Path 72" d="M-.028,425.152a1.891,1.891,0,0,1,.39-.054c1.508.086,3.016.18,4.525.271.078,0,.156,0,.282,0,.044-.523.088-1.034.133-1.569l.525.034c-.066,1.275-.13,2.524-.2,3.786H5.124v-1.578c-.364-.027-.693-.058-1.023-.073q-2.065-.091-4.131-.175Z" transform="translate(0.03 -390.766)" fill="#0090ff"/>
    <path id="Path_73" data-name="Path 73" d="M131.816,99.79a29.959,29.959,0,0,1,16,4.287,25.237,25.237,0,0,1,11.457,15.608,29.36,29.36,0,0,1,.982,7.578,31.979,31.979,0,0,1-1.984,11.711,25.345,25.345,0,0,1-13.859,14.364,29,29,0,0,1-9.523,2.387,29.734,29.734,0,0,1-15.536-2.732,25.234,25.234,0,0,1-14.04-16.892,30.626,30.626,0,0,1-.988-6.57,31.248,31.248,0,0,1,1.818-12.616,25.1,25.1,0,0,1,11.945-13.636,28.62,28.62,0,0,1,11.068-3.313C130.19,99.868,131.234,99.827,131.816,99.79Zm20.853,39.629v-3.793h-3.241v-4.507h2.93v-3.7h-3.035V123.1h3.164v-1.077l2.615,1.518v-.479c0-.67-.019-1.34.008-2.008a.669.669,0,0,0-.39-.694q-11.343-6.528-22.669-13.081a.68.68,0,0,0-.8,0q-7.141,4.289-14.293,8.555l-8.617,5.144a.6.6,0,0,0-.344.6c.019.615,0,1.231.008,1.847,0,.11.023.22.041.38l3.21-1.859.089.072V139.7h3.2V129.238l.072-.007,3.785,10.481h3.013V119.585h-3.1v11.657a.844.844,0,0,1-.188-.355q-1.715-5.262-3.444-10.522c-.1-.3-.019-.42.228-.564q8.324-4.85,16.637-9.718a.484.484,0,0,1,.577,0q7.595,4.468,15.2,8.92a2.666,2.666,0,0,1,.234.174l-.021.084H145.9v20.159Zm-25.331-19.965-3.806,20.17h3.02l.7-3.563h3.383c.238,1.207.472,2.392.7,3.567h3.2c-.01-.1-.012-.179-.027-.256q-.4-2.046-.81-4.092l-2.058-10.386c-.338-1.705-.683-3.408-1.02-5.114-.033-.164-.048-.326-.27-.326Zm13.642,20.079V123.215h2.545v-3.682h-8.34v3.811h2.371v16.189Z" transform="translate(-96.15 -92.01)" fill="#0090ff"/>
    <path id="Path_74" data-name="Path 74" d="M69.74,202.1c-.221.624-.234.628-.768.546q-1.882-.288-3.766-.567a.329.329,0,0,0-.234.058l3.536,2.08c-.11.192-.214.373-.342.6l-4.926-2.933c.03-.072.044-.123.069-.169.265-.495.294-.5.841-.414,1.266.2,2.533.39,3.8.59l.04-.078-3.458-2.092.322-.61Z" transform="translate(-58.309 -183.589)" fill="#0090ff"/>
    <path id="Path_75" data-name="Path 75" d="M827.635,563.515c.09-.234.165-.429.247-.645l5.391,1.949c-.078.234-.146.433-.234.7l-4.433.2-.016.1,3.855,1.371-.228.652-5.365-1.938a.394.394,0,0,1-.008-.115c.211-.608.211-.612.926-.641,1.1-.045,2.191-.083,3.286-.129a.7.7,0,0,0,.39-.123Z" transform="translate(-762.397 -518.997)" fill="#0090ff"/>
    <path id="Path_76" data-name="Path 76" d="M779.849,192.39c.455.61.452.608.025,1.169q-1.128,1.481-2.251,2.975l.05.07,3.484-2.062c.119.187.23.362.369.582l-4.935,2.945c-.078-.112-.15-.207-.219-.3a.39.39,0,0,1,.024-.532c.759-1,1.5-2.02,2.245-3.034a.951.951,0,0,0,.193-.409q-1.754,1.052-3.532,2.111l-.361-.537Z" transform="translate(-714.538 -177.393)" fill="#0090ff"/>
    <path id="Path_77" data-name="Path 77" d="M77.9,666.418l-4.6,3.445-.458-.552,2.237-3.785L75,665.448l-3.223,2.424-.4-.5,4.59-3.494.451.6-2.276,3.8.062.056,3.264-2.457Z" transform="translate(-65.814 -612.134)" fill="#0090ff"/>
    <path id="Path_78" data-name="Path 78" d="M365.085,839.893l.639.1q-.445,2.83-.884,5.612c-.6.108-.7.048-.832-.491q-.465-1.924-.923-3.849l-.087-.01c-.207,1.325-.415,2.65-.627,4.013l-.641-.071c.3-1.909.6-3.778.9-5.685l.7.148q.527,2.138,1.057,4.292l.078,0C364.665,842.61,364.869,841.274,365.085,839.893Z" transform="translate(-333.534 -774.076)" fill="#0090ff"/>
    <path id="Path_79" data-name="Path 79" d="M154.064,106.987c.512.156.969.294,1.424.434s.885.274,1.335.415c-.348.537-.468.582-1.013.405-.571-.186-1.151-.349-1.71-.566a.571.571,0,0,0-.733.156,1.552,1.552,0,0,1-.323.211l1.643,1.82-.5.443-3.86-4.262a8.15,8.15,0,0,1,1.686-1.4,1.5,1.5,0,0,1,1.662.344A1.635,1.635,0,0,1,154.064,106.987Zm-2.846-1.009,1.519,1.67c.245-.253.468-.468.67-.691a1.1,1.1,0,0,0-1.361-1.624C151.78,105.53,151.523,105.74,151.218,105.978Z" transform="translate(-138.611 -96.376)" fill="#0090ff"/>
    <path id="Path_80" data-name="Path 80" d="M584.33,27.034q.259,1.388.518,2.784c-.588-.055-.7-.15-.8-.663-.115-.6-.255-1.2-.331-1.814a.575.575,0,0,0-.495-.563,3.4,3.4,0,0,1-.351-.124l-.807,2.182-.641-.2c.662-1.788,1.316-3.56,1.995-5.39a6.673,6.673,0,0,1,2.047.879,1.7,1.7,0,0,1-.489,2.687C584.775,26.888,584.573,26.952,584.33,27.034Zm-.51-3.04c-.254.71-.5,1.393-.747,2.092.312.105.57.217.841.277a1.182,1.182,0,0,0,.581.005,1.162,1.162,0,0,0,.762-1.079.965.965,0,0,0-.589-.961c-.261-.126-.539-.217-.847-.337Z" transform="translate(-536.101 -21.436)" fill="#0090ff"/>
    <path id="Path_81" data-name="Path 81" d="M41.793,607.93l.312.636-2.249,1.117.8,1.693,2.3-1.091.3.595-5.206,2.5c-.109-.216-.2-.39-.3-.592l2.4-1.159-.842-1.7-2.351,1.139-.3-.59Z" transform="translate(-33.791 -560.545)" fill="#0090ff"/>
    <path id="Path_82" data-name="Path 82" d="M260.4,33.47l-1.091-2.251.593-.3,2.549,5.144-.591.3L260.7,34.024l-1.751.8c.4.811.792,1.595,1.193,2.405l-.641.3c-.835-1.743-1.66-3.459-2.5-5.2l.592-.312,1.108,2.295Z" transform="translate(-236.967 -28.508)" fill="#0090ff"/>
    <path id="Path_83" data-name="Path 83" d="M287.3,830.749l-.631-.226c.012-.274.03-.546.036-.824s0-.556,0-.88l-1.648-.588-.7.979c-.285.4-.289.4-.743.214-.059-.025-.115-.057-.207-.1,1.187-1.623,2.359-3.225,3.542-4.841l.8.3Zm-.26-5.09-.1-.027-1.488,2.1,1.348.5C286.876,827.34,286.958,826.5,287.036,825.659Z" transform="translate(-261.309 -760.217)" fill="#0090ff"/>
    <path id="Path_84" data-name="Path 84" d="M114.981,154.3a2.749,2.749,0,0,1-1.806-.74,6.521,6.521,0,0,1-1.686-1.8,1.614,1.614,0,0,1,1.105-2.517,2.2,2.2,0,0,1,1.507.447,6.121,6.121,0,0,1,2.005,1.936,1.586,1.586,0,0,1,.044,2.075A1.321,1.321,0,0,1,114.981,154.3Zm.942-1.523a2.122,2.122,0,0,0-.186-.511,6.471,6.471,0,0,0-2.6-2.313.85.85,0,0,0-1.147.325.985.985,0,0,0,.176,1.347,21.974,21.974,0,0,0,1.846,1.706,1.9,1.9,0,0,0,.8.339A.928.928,0,0,0,115.923,152.778Z" transform="translate(-102.543 -137.59)" fill="#0090ff"/>
    <path id="Path_85" data-name="Path 85" d="M733.18,152.871c-.078-.069-.129-.111-.175-.156-.346-.36-.345-.361-.078-.77l.65-1.013-1.2-1.359-1.51.745-.5-.541,5.408-2.607.557.592Zm.747-2.5,1.434-2.2-.058-.064-2.372,1.161C733.273,149.651,733.574,149.983,733.926,150.373Z" transform="translate(-673.442 -135.697)" fill="#0090ff"/>
    <path id="Path_86" data-name="Path 86" d="M401.926,7.184c-.2,0-.336-.008-.468,0a.272.272,0,0,1-.312-.234c-.123-.381-.268-.755-.39-1.137a.252.252,0,0,0-.316-.212c-.412.037-.828.047-1.242.056a.355.355,0,0,0-.4.344c-.041.291-.115.576-.172.864-.108.531-.2.589-.79.478q.643-2.888,1.285-5.776l.857-.068C400.615,3.359,401.258,5.234,401.926,7.184Zm-1.45-2.2c-.277-.847-.538-1.645-.8-2.443l-.087,0-.565,2.547Z" transform="translate(-366.83 -1.381)" fill="#0090ff"/>
    <path id="Path_87" data-name="Path 87" d="M849.31,322.457a1.484,1.484,0,0,1,1.553-1.567,1.588,1.588,0,1,1-1.553,1.567Z" transform="translate(-783.111 -295.877)" fill="#0090ff"/>
    <path id="Path_88" data-name="Path 88" d="M34.81,325.217A1.546,1.546,0,1,1,37.9,325.2a1.49,1.49,0,0,1-1.559,1.6A1.465,1.465,0,0,1,34.81,325.217Z" transform="translate(-32.095 -298.422)" fill="#0090ff"/>
    <path id="Path_89" data-name="Path 89" d="M853.689,439.79v2.355h1.938V440.49h.578V442.2h2.089v-2.361h.628c-.034,1.013-.067,2.014-.1,3.07l-5.7-.09V439.79Z" transform="translate(-786.625 -405.51)" fill="#0090ff"/>
    <path id="Path_90" data-name="Path 90" d="M559.016,832.917l-.682.2c.118-.779.185-1.524.356-2.245a1.524,1.524,0,0,0-.447-1.643c-.514-.482-.956-1.076-1.433-1.623.595-.29.617-.287,1,.144l1.149,1.3c.063-.334.116-.6.161-.857a5.911,5.911,0,0,0,.136-.91c0-.363.193-.493.506-.533.064-.009.126-.028.243-.055-.065.451-.123.869-.189,1.287-.078.488-.144.979-.245,1.462a.586.586,0,0,0,.161.575c.546.6,1.078,1.226,1.614,1.841.078.089.148.183.258.319l-.671.2-1.559-1.734C559.25,831.44,559.136,832.161,559.016,832.917Z" transform="translate(-513.409 -762.255)" fill="#0090ff"/>
    <path id="Path_91" data-name="Path 91" d="M801.342,624.042l1.739.846.762-1.532.479.253-.726,1.533,1.838.9,1.064-2.192.546.286c-.449.917-.887,1.813-1.35,2.758l-5.2-2.5,1.337-2.732.546.248C802.029,622.622,801.694,623.31,801.342,624.042Z" transform="translate(-738.097 -573.205)" fill="#0090ff"/>
    <path id="Path_92" data-name="Path 92" d="M676.93,770.883l1.9-1.443.362.432-2.461,1.917-3.452-4.61,2.4-1.85.4.442-1.9,1.46,1.144,1.544,1.35-1.03.355.423-1.342,1.073Z" transform="translate(-620.802 -705.677)" fill="#0090ff"/>
    <path id="Path_93" data-name="Path 93" d="M6.554,491.744l-1.884.2c.056.565.111,1.115.17,1.705l-.574.067c-.073-.561-.141-1.086-.216-1.664l-2.042.234c.1.811.188,1.588.286,2.416l-.585.039c-.117-1.013-.23-2-.35-3.04l5.694-.7c.135,1,.267,1.97.4,2.98l-.58.127C6.771,493.327,6.669,492.567,6.554,491.744Z" transform="translate(-1.252 -452.729)" fill="#0090ff"/>
    <path id="Path_94" data-name="Path 94" d="M525.7,11.046l2.338.608c-.038.186-.072.348-.114.546l-3.022-.751c.468-1.846.923-3.663,1.4-5.549l2.936.689c-.04.2-.078.39-.117.6L526.8,6.6l-.449,1.892L528,8.907c-.048.19-.093.361-.147.576L526.2,9.055Z" transform="translate(-483.987 -5.438)" fill="#0090ff"/>
    <path id="Path_95" data-name="Path 95" d="M497.28,843.5l2.983-.4c.038.2.072.373.112.586l-2.4.312c.083.637.161,1.241.246,1.892l1.7-.174.094.571-1.686.219c.078.687.161,1.352.243,2.047l2.373-.287a2.224,2.224,0,0,1,.042.234c.006.078,0,.156,0,.3l-3.008.4C497.749,847.314,497.518,845.438,497.28,843.5Z" transform="translate(-458.519 -777.386)" fill="#0090ff"/>
    <path id="Path_96" data-name="Path 96" d="M627.783,808.234a1.452,1.452,0,0,1-1.091,2.151,1.842,1.842,0,0,1-2-1.008,14.633,14.633,0,0,1-.847-1.588,3.249,3.249,0,0,1-.288-1.8,1.419,1.419,0,0,1,.917-1.127,1.3,1.3,0,0,1,1.883.579c-.086.053-.171.111-.26.156s-.19.089-.28.129a.628.628,0,0,1-.111-.078.761.761,0,0,0-.913-.312,1.076,1.076,0,0,0-.624.952,3.629,3.629,0,0,0,.173.894,6.357,6.357,0,0,0,1.318,2.313.975.975,0,0,0,1.275.141.762.762,0,0,0,.331-.724C627.233,808.38,627.242,808.38,627.783,808.234Z" transform="translate(-574.937 -741.947)" fill="#0090ff"/>
    <path id="Path_97" data-name="Path 97" d="M848.044,503.65c-.032.267-.055.458-.078.665-.468.026-.812.182-.907.656a.951.951,0,0,0,.514,1.069,7.315,7.315,0,0,0,1.514.482,9.408,9.408,0,0,0,1.672.1,1.149,1.149,0,0,0,.632-.205.878.878,0,0,0-.138-1.577c-.069-.037-.146-.058-.254-.1.037-.207.073-.412.109-.614a1.489,1.489,0,0,1,1.222,2.008,1.668,1.668,0,0,1-1.465,1.14,5.937,5.937,0,0,1-3.672-.7,1.512,1.512,0,0,1-.739-1.57,1.375,1.375,0,0,1,.883-1.229A3.645,3.645,0,0,1,848.044,503.65Z" transform="translate(-780.467 -464.393)" fill="#0090ff"/>
    <path id="Path_98" data-name="Path 98" d="M177.522,765.934l-.468-.379a2.662,2.662,0,0,0,.006-.865.919.919,0,0,0-1.451-.328,5.689,5.689,0,0,0-1.759,2,2,2,0,0,0-.356,1.044.872.872,0,0,0,.462.828.828.828,0,0,0,.935-.108,1.98,1.98,0,0,1,.253-.148l.512.378a1.453,1.453,0,0,1-1.879.46,1.521,1.521,0,0,1-.889-1.832,4.267,4.267,0,0,1,.9-1.771,4.931,4.931,0,0,1,1.573-1.464,1.542,1.542,0,0,1,1.7.078,1.327,1.327,0,0,1,.7,1.377A4.947,4.947,0,0,1,177.522,765.934Z" transform="translate(-159.369 -704.015)" fill="#0090ff"/>
    <path id="Path_99" data-name="Path 99" d="M701.329,97.587l-.489-.351c.022-.064.041-.123.062-.182a.743.743,0,0,0-.241-.929A.888.888,0,0,0,699.648,96a2.226,2.226,0,0,0-.468.3,6.509,6.509,0,0,0-1.764,2.448.942.942,0,0,0,.1.956.831.831,0,0,0,1.225.234c.1-.063.2-.129.323-.209l.463.364a1.418,1.418,0,0,1-1.743.564,1.832,1.832,0,0,1-1.053-1.576,2.782,2.782,0,0,1,.479-1.426,6.411,6.411,0,0,1,1.752-2.012,1.647,1.647,0,0,1,2.051-.03A1.4,1.4,0,0,1,701.329,97.587Z" transform="translate(-642.422 -87.842)" fill="#0090ff"/>
    <path id="Path_100" data-name="Path 100" d="M18.7,559.268a1.534,1.534,0,0,1-1.986-1.752,1.564,1.564,0,0,1,.785-1.2,6.485,6.485,0,0,1,2.943-.958,3.651,3.651,0,0,1,.72.023,1.539,1.539,0,0,1,1.417,1.314,1.33,1.33,0,0,1-.96,1.624c-.064-.2-.127-.394-.182-.563.027-.048.031-.065.041-.071.5-.3.609-.483.517-.87a1.031,1.031,0,0,0-.991-.835,5.081,5.081,0,0,0-1.809.3c-.255.078-.5.187-.756.264a1.933,1.933,0,0,0-.935.658.878.878,0,0,0,.39,1.38,4.993,4.993,0,0,0,.624.115Z" transform="translate(-15.405 -512.067)" fill="#0090ff"/>
    <path id="Path_101" data-name="Path 101" d="M200.94,64.847l-.593.351-2.65-4.432-1.354.829L196,61.049l3.295-1.949.3.489-1.341.82Z" transform="translate(-180.721 -54.491)" fill="#0090ff"/>
    <path id="Path_102" data-name="Path 102" d="M121.246,718.453l-3.439,3.139.531.563-.442.39-1.5-1.645.447-.4.486.554,3.4-3.052-.482-.561.457-.4,1.441,1.637-.406.434Z" transform="translate(-107.325 -661.151)" fill="#0090ff"/>
    <path id="Path_103" data-name="Path 103" d="M234.912,801.848l-.241.518-1.991-.945.234-.517.71.312,1.991-4.131-.687-.323.3-.531,1.935.949-.238.525-.658-.316c-.682,1.378-1.358,2.744-2.042,4.131Z" transform="translate(-214.542 -734.169)" fill="#0090ff"/>
    <path id="Path_104" data-name="Path 104" d="M646.351,55.489l-.631-.418c.093-.156.183-.312.293-.5l1.894,1.143-.293.5-.711-.376-2.338,3.88.631.426-.3.492L643,59.5c.1-.175.2-.33.3-.5l.716.371Z" transform="translate(-592.882 -50.314)" fill="#0090ff"/>
    <path id="Path_105" data-name="Path 105" d="M770.543,702.174l1.412-2.008.488.359-1.8,2.551-4.745-3.3.4-.55Z" transform="translate(-706.203 -644.729)" fill="#0090ff"/>
    <path id="Path_106" data-name="Path 106" d="M733.116,744.751,729,740.782l.513-.482,3.627,3.52,1.817-1.764.349.4Z" transform="translate(-672.179 -682.598)" fill="#0090ff"/>
    <path id="Path_107" data-name="Path 107" d="M790.674,849.015a2.27,2.27,0,0,1-2.367,2.346,2.243,2.243,0,0,1-2.314-2.391,2.216,2.216,0,0,1,2.326-2.3A2.24,2.24,0,0,1,790.674,849.015Zm-2.356-1.982A1.967,1.967,0,0,0,786.357,849a1.91,1.91,0,0,0,1.98,1.974,1.887,1.887,0,0,0,1.957-1.948,1.953,1.953,0,0,0-1.977-1.99Z" transform="translate(-724.729 -780.676)" fill="#0090ff"/>
    <path id="Path_108" data-name="Path 108" d="M404.28,435.818c.383-2.592.762-5.151,1.14-7.711l.1-.007,1.335,7.716Z" transform="translate(-372.768 -394.731)" fill="#0090ff"/>
    <path id="Path_109" data-name="Path 109" d="M803.7,862.625v.987l-.378.023V861.15c.436,0,.857-.027,1.281.008a.639.639,0,0,1,.624.613c.027.331-.115.527-.488.684-.036.016-.069.034-.134.067.135.176.267.338.39.509s.234.352.355.533c-.408.133-.4.126-.6-.208a2.731,2.731,0,0,0-.455-.6,1.872,1.872,0,0,0-.5-.234Zm.013-.376a3.682,3.682,0,0,0,.77-.078.529.529,0,0,0,.3-.355c.014-.083-.182-.27-.306-.295a4.09,4.09,0,0,0-.768-.014Z" transform="translate(-740.706 -794.02)" fill="#0090ff"/>
    <path id="Path_110" data-name="Path 110" d="M217.53,973.469a1.167,1.167,0,0,0-1.169-.935c-1.053,0-1.449.9-1.449,1.83,0,.889.4,1.785,1.449,1.785a1.2,1.2,0,0,0,1.21-1.195h1.135a2.244,2.244,0,0,1-2.345,2.182,2.8,2.8,0,0,1,0-5.586,2.166,2.166,0,0,1,2.3,1.919Z" transform="translate(-197.079 -895.824)" fill="#0090ff"/>
    <path id="Path_111" data-name="Path 111" d="M287.76,973.18h3.988v.985h-2.815v1.143h2.587v.912h-2.587v1.311h2.875v.985H287.76Z" transform="translate(-265.329 -897.327)" fill="#0090ff"/>
    <path id="Path_112" data-name="Path 112" d="M349.85,973.18h2.876a1.463,1.463,0,0,1,1.559,1.471,1.3,1.3,0,0,1-.843,1.337V976c.574.156.739.7.779,1.247a2.788,2.788,0,0,0,.224,1.262h-1.175a6.382,6.382,0,0,1-.186-1.277c-.083-.56-.3-.807-.889-.807h-1.169v2.083h-1.169Zm1.169,2.416H352.3c.53,0,.807-.225.807-.762,0-.515-.277-.739-.807-.739h-1.281Z" transform="translate(-322.58 -897.327)" fill="#0090ff"/>
    <path id="Path_113" data-name="Path 113" d="M415.269,974.165h-1.6v-.985h4.369v.985h-1.6v4.347h-1.169Z" transform="translate(-381.426 -897.327)" fill="#0090ff"/>
    <path id="Path_114" data-name="Path 114" d="M477.58,973.18h1.173v5.332H477.58Z" transform="translate(-440.355 -897.327)" fill="#0090ff"/>
    <path id="Path_115" data-name="Path 115" d="M505.85,973.18H509.6v.985h-2.581V975.4h2.233v.911h-2.233v2.2h-1.169Z" transform="translate(-466.421 -897.327)" fill="#0090ff"/>
    <path id="Path_116" data-name="Path 116" d="M562.67,973.18h1.169v5.332H562.67Z" transform="translate(-518.813 -897.327)" fill="#0090ff"/>
    <path id="Path_117" data-name="Path 117" d="M590.94,973.18h3.988v.985h-2.814v1.143H594.7v.912h-2.585v1.311h2.875v.985H590.94Z" transform="translate(-544.879 -897.327)" fill="#0090ff"/>
    <path id="Path_118" data-name="Path 118" d="M653,973.18h2.3a2.339,2.339,0,0,1,2.42,2.636c0,1.546-.792,2.7-2.42,2.7H653Zm1.169,4.347h1.046c.68,0,1.325-.419,1.325-1.6,0-1.076-.38-1.763-1.539-1.763h-.827Z" transform="translate(-602.102 -897.327)" fill="#0090ff"/>
    <path id="Path_119" data-name="Path 119" d="M136.6,1089.146H135v-.986h4.369v.986h-1.6v4.347H136.6Z" transform="translate(-124.476 -1003.346)" fill="#0090ff"/>
    <path id="Path_120" data-name="Path 120" d="M198.94,1088.16h3.988v.986h-2.814v1.143H202.7v.911h-2.584v1.307h2.875v.986H198.94Z" transform="translate(-183.432 -1003.346)" fill="#0090ff"/>
    <path id="Path_121" data-name="Path 121" d="M261.846,1088.45a1.165,1.165,0,0,0-1.165-.935c-1.053,0-1.449.9-1.449,1.83,0,.889.4,1.785,1.449,1.785a1.2,1.2,0,0,0,1.21-1.195h1.136a2.244,2.244,0,0,1-2.345,2.182,2.8,2.8,0,0,1,0-5.587,2.168,2.168,0,0,1,2.3,1.92Z" transform="translate(-237.944 -1001.843)" fill="#0090ff"/>
    <path id="Path_122" data-name="Path 122" d="M332,1088.16h1.169v2.047h2.159v-2.047H336.5v5.333h-1.169v-2.3h-2.159v2.3H332Z" transform="translate(-306.121 -1003.346)" fill="#0090ff"/>
    <path id="Path_123" data-name="Path 123" d="M403,1088.16h1.169l2.226,3.578h.015v-3.578h1.1v5.333h-1.175l-2.218-3.57H404.1v3.57H403Z" transform="translate(-371.588 -1003.346)" fill="#0090ff"/>
    <path id="Path_124" data-name="Path 124" d="M474,1088.16h1.169v5.333H474Z" transform="translate(-437.054 -1003.346)" fill="#0090ff"/>
    <path id="Path_125" data-name="Path 125" d="M503.117,1088.45a1.165,1.165,0,0,0-1.165-.935c-1.053,0-1.449.9-1.449,1.83,0,.889.4,1.785,1.449,1.785a1.2,1.2,0,0,0,1.21-1.195H504.3a2.245,2.245,0,0,1-2.345,2.182,2.8,2.8,0,0,1,0-5.587,2.168,2.168,0,0,1,2.3,1.92Z" transform="translate(-460.409 -1001.843)" fill="#0090ff"/>
    <path id="Path_126" data-name="Path 126" d="M573.31,1088.16h1.169v5.333H573.31Z" transform="translate(-528.624 -1003.346)" fill="#0090ff"/>
    <path id="Path_127" data-name="Path 127" d="M596.314,1088.16h1.2l1.994,5.333h-1.217l-.4-1.188H595.9l-.418,1.188H594.29Zm-.112,3.274h1.382l-.672-1.956H596.9Z" transform="translate(-547.968 -1003.346)" fill="#0090ff"/>
    <path id="Path_128" data-name="Path 128" d="M667.21,1088.16h1.165l2.226,3.578h.015v-3.578h1.1v5.333h-1.169l-2.218-3.57h-.015v3.57h-1.1Z" transform="translate(-615.205 -1003.346)" fill="#0090ff"/>
    <path id="Path_129" data-name="Path 129" d="M735.032,1090.22c0,.709.553.986,1.18.986.411,0,1.038-.12,1.038-.665,0-.582-.807-.665-1.584-.881-.792-.194-1.591-.53-1.591-1.516,0-1.1,1.031-1.613,1.995-1.613,1.113,0,2.136.486,2.136,1.715h-1.135c-.037-.634-.486-.807-1.053-.807-.374,0-.807.156-.807.6,0,.411.254.468,1.591.807.4.09,1.583.352,1.583,1.553,0,.979-.761,1.715-2.218,1.715-1.18,0-2.292-.583-2.27-1.9Z" transform="translate(-676.693 -1001.843)" fill="#0090ff"/>
  </g>
</svg>
