<svg version="1.1" xmlns="http://www.w3.org/2000/svg" xmlns:xlink="http://www.w3.org/1999/xlink" x="0px" y="0px" viewBox="0 0 64 64" xml:space="preserve" width="42" height="42"><title>lock</title><g class="nc-icon-wrapper" stroke-linecap="square" stroke-linejoin="miter" stroke-width="1" transform="translate(0.5 0.5)" fill="#111111" stroke="#111111"><path data-color="color-2" fill="none" stroke-miterlimit="10" d="M44,21v-7 c0-6.627-5.373-12-12-12h0c-6.627,0-12,5.373-12,12v7"/> <path fill="none" stroke="#111111" stroke-miterlimit="10" d="M50,62H14 c-2.209,0-4-1.791-4-4V30c0-2.209,1.791-4,4-4h36c2.209,0,4,1.791,4,4v28C54,60.209,52.209,62,50,62z"/> <line data-color="color-2" fill="none" stroke-miterlimit="10" x1="32" y1="47" x2="32" y2="53"/> <circle data-color="color-2" fill="none" stroke-miterlimit="10" cx="32" cy="41" r="6"/></g></svg>