<svg xmlns="http://www.w3.org/2000/svg" xmlns:xlink="http://www.w3.org/1999/xlink" width="42" height="42" viewBox="0 0 42 42">
  <defs>
    <clipPath id="clip-path">
      <rect id="Rectangle_77" data-name="Rectangle 77" width="42" height="42" transform="translate(1084 464)" fill="#fff" stroke="#707070" stroke-width="1"/>
    </clipPath>
  </defs>
  <g id="Mask_Group_12" data-name="Mask Group 12" transform="translate(-1084 -464)" clip-path="url(#clip-path)">
    <g id="ic_attach_money_48px" transform="translate(1082.37 461)">
      <path id="Path_193" data-name="Path 193" d="M23.6,21.8c-4.54-1.18-6-2.39-6-4.29,0-2.18,2.01-3.71,5.4-3.71,3.56,0,4.88,1.7,5,4.2h4.42A7.962,7.962,0,0,0,26,10.38V6H20v4.32c-3.88.85-7,3.35-7,7.22,0,4.62,3.83,6.92,9.4,8.26,5.01,1.2,6,2.95,6,4.83,0,1.37-.97,3.57-5.4,3.57-4.12,0-5.75-1.85-5.96-4.2H12.63c.25,4.38,3.52,6.83,7.37,7.66V42h6V37.7c3.89-.75,7-3,7-7.11,0-5.66-4.86-7.6-9.4-8.79Z" fill="#111"/>
    </g>
  </g>
</svg>
