<svg xmlns="http://www.w3.org/2000/svg" viewBox="0 0 551.66 242.21"><defs><style>.cls-1{fill:#fff;}</style></defs><title>Asset 1</title><g id="Layer_2" data-name="Layer 2"><g id="Layer_1-2" data-name="Layer 1"><path class="cls-1" d="M522.74,42.16H276.41a43.68,43.68,0,0,0-11.64-10.67L240,13.18a9,9,0,0,1-1-11.5L236.63,0l-16,22.35a31.3,31.3,0,0,0-4.52,19.81H28.91A28.94,28.94,0,0,0,0,71.07V213.29a29,29,0,0,0,28.91,28.92H522.74a29,29,0,0,0,28.92-28.92V71.07A29,29,0,0,0,522.74,42.16Zm22.87,171.13a22.9,22.9,0,0,1-22.87,22.87H28.91A22.89,22.89,0,0,1,6.05,213.29V71.07A22.89,22.89,0,0,1,28.91,48.21H217.67a32.67,32.67,0,0,0,9.56,13l26.63,19.75a15.38,15.38,0,0,1,3.32,15,18.76,18.76,0,0,1-2.19,4.36l2.3,1.71L277.53,73c5.71-9.86,5.19-18.23,2.37-24.82H522.74a22.89,22.89,0,0,1,22.87,22.86Z"/><path class="cls-1" d="M214.76,107.39l19,14.39a4.17,4.17,0,0,1,.74,5.45l-.35.54,3,2.17,11.13-16.44s9.56-15.86-8.69-27.52l-16.89-12.6s-2.29-2.35-.21-5.89l-3-2.1L209.56,79S198.35,94.94,214.76,107.39Z"/><polygon class="cls-1" points="276.94 134.4 196.77 134.47 193.55 144.51 215.22 144.5 219.31 157.95 254.47 157.94 258.67 144.24 280.21 144.24 276.94 134.4"/><path class="cls-1" d="M202.89,189.35a11.19,11.19,0,0,0,4.88-4.35,11.83,11.83,0,0,0,1.78-6.34,11.36,11.36,0,0,0-1.46-5.74,12.61,12.61,0,0,0-3.69-4.17,11.5,11.5,0,0,0-5-2,50.76,50.76,0,0,0-8.41-.54l-19.07,0,.07,49.42,16.22,0a115.83,115.83,0,0,0,11.6-.37,12.89,12.89,0,0,0,6.45-2.31,13.07,13.07,0,0,0,4.15-5.07,15,15,0,0,0,1.55-6.56,12.49,12.49,0,0,0-2.39-7.46A12.64,12.64,0,0,0,202.89,189.35Zm-15.78-14.86c4.5,0,7.22.06,8.21.16a5.29,5.29,0,0,1,3.56,1.7,5.06,5.06,0,0,1,1.23,3.71,4.92,4.92,0,0,1-1.38,3.88,6.06,6.06,0,0,1-3.9,1.78q-1.31.17-7,.16l-6.29,0,0-11.38ZM200.66,205a6.08,6.08,0,0,1-3.5,1.95,36.45,36.45,0,0,1-6.66.32h-8.92V194.14h7.78c4.42,0,7.25.21,8.54.65a6.12,6.12,0,0,1,4.09,6A6.18,6.18,0,0,1,200.66,205Z"/><path class="cls-1" d="M247.71,189.3a10.9,10.9,0,0,0,4.91-4.35,11.75,11.75,0,0,0,1.79-6.33,11.6,11.6,0,0,0-1.46-5.78,12.07,12.07,0,0,0-8.69-6.19,56.6,56.6,0,0,0-8.43-.47l-19.05,0,0,49.39H233c6.14-.07,10-.13,11.63-.34a13.15,13.15,0,0,0,6.47-2.34,13.52,13.52,0,0,0,4.16-5.11,16,16,0,0,0,1.45-6.54,12.42,12.42,0,0,0-2.28-7.47A12.8,12.8,0,0,0,247.71,189.3ZM232,174.46c4.47,0,7.2,0,8.17.13a5.28,5.28,0,0,1,3.65,1.73A5.67,5.67,0,0,1,245,180a5.51,5.51,0,0,1-1.41,3.86,6.36,6.36,0,0,1-3.87,1.77c-1,.11-3.25.18-7,.13l-6.31.06,0-11.39ZM245.5,205a5.55,5.55,0,0,1-3.5,1.95,38.34,38.34,0,0,1-6.62.34h-8.93V194.08h7.81c4.34,0,7.22.21,8.52.69a6.05,6.05,0,0,1,3,2.24,6.52,6.52,0,0,1,1,3.79A5.94,5.94,0,0,1,245.5,205Z"/><path class="cls-1" d="M292.43,189.28a11.56,11.56,0,0,0,4.9-4.37,11.94,11.94,0,0,0,1.77-6.38,11.6,11.6,0,0,0-1.45-5.74,12.87,12.87,0,0,0-3.67-4.14,12.62,12.62,0,0,0-5-2.05,50,50,0,0,0-8.46-.48l-19.07,0,.08,49.41,16.22,0c6.16-.06,10-.15,11.65-.38a13.83,13.83,0,0,0,6.44-2.31,13.28,13.28,0,0,0,4.08-5.1,13.87,13.87,0,0,0,1.56-6.55,12,12,0,0,0-9.05-11.92Zm-21.36-14.9h5.59c4.49,0,7.21,0,8.19.16a5.39,5.39,0,0,1,3.64,1.74,5.29,5.29,0,0,1,1.23,3.72,5.12,5.12,0,0,1-1.48,3.81,5.59,5.59,0,0,1-3.81,1.78c-.91.14-3.2.15-7,.15l-6.37,0Zm19.14,30.5a6,6,0,0,1-3.53,2,45.6,45.6,0,0,1-6.62.32h-8.95V194H279c4.36,0,7.21.23,8.51.69a6.07,6.07,0,0,1,3,2.22,7.09,7.09,0,0,1-.26,7.94Z"/><polygon class="cls-1" points="344.45 95.67 344.45 82.57 349.95 82.57 349.95 79.19 334.35 79.19 334.35 82.57 339.8 82.57 339.8 95.67 344.45 95.67"/><path class="cls-1" d="M359.66,95.85c5.66,0,9.88-3.64,9.88-8.43s-4.22-8.35-9.88-8.35-9.87,3.55-9.87,8.35S354,95.85,359.66,95.85Zm0-13.28a4.89,4.89,0,1,1,0,9.78,5,5,0,0,1-5.17-4.91A5,5,0,0,1,359.71,82.57Z"/><path class="cls-1" d="M376.64,91h3.65L383,95.67h5.27l-3.83-5.43A5.43,5.43,0,0,0,387.75,85c0-3.67-2.77-5.74-7.59-5.74H372V95.67h4.65Zm0-8.53h3.52c2,0,3.18.87,3.18,2.59s-1.17,2.65-3.18,2.65h-3.52Z"/><path class="cls-1" d="M399.28,95.85a11.67,11.67,0,0,0,7.54-3l-2.71-2.59a7.25,7.25,0,0,1-4.6,1.93,4.82,4.82,0,1,1,0-9.62,6.54,6.54,0,0,1,4.6,2.14l2.68-2.86a11.16,11.16,0,0,0-7.35-2.78c-5.56,0-9.76,3.57-9.76,8.32S393.77,95.85,399.28,95.85Z"/><polygon class="cls-1" points="413.57 89.27 421.14 89.27 421.14 95.67 425.78 95.67 425.78 79.21 421.14 79.21 421.14 85.98 413.57 85.98 413.57 79.21 408.93 79.21 408.93 95.67 413.57 95.67 413.57 89.27"/><path class="cls-1" d="M438.67,92.67h7.21l1.18,3h4.47l-6.95-16.49h-4.31l-7.11,16.49h4.31Zm3.63-9.28,2.35,6.1h-4.76Z"/><polygon class="cls-1" points="459.85 95.71 462.96 84.31 466.02 95.71 470.33 95.71 475.77 79.22 471.49 79.22 468.31 91.35 465.08 79.22 460.98 79.22 457.82 91.35 454.59 79.22 450.12 79.22 455.51 95.71 459.85 95.71"/><path class="cls-1" d="M478.53,95.71l1.2-3h7.21l1.18,3h4.47l-6.95-16.49h-4.31l-7.11,16.49Zm4.83-12.32,2.35,6.1H481Z"/><path class="cls-1" d="M505.36,90.27a5.5,5.5,0,0,0,3-5.3c0-3.68-2.49-5.75-6.85-5.75h-7.38V95.71h4.2V91.07h3.3l2.45,4.64h4.75Zm-3.86-2.5h-3.18V82.52h3.18c1.81,0,2.87.87,2.87,2.59S503.31,87.77,501.5,87.77Z"/><path class="cls-1" d="M518.27,79.22h-7.09V95.71h6.93c5.3,0,8.92-3.37,8.92-8.25S523.45,79.22,518.27,79.22Zm.09,13.14h-3v-9.8h2.81c2.66,0,4.59,2,4.59,4.93S520.93,92.36,518.36,92.36Z"/><polygon class="cls-1" points="405.29 106.65 401.02 106.65 397.84 118.75 394.63 106.65 390.54 106.65 387.39 118.75 384.17 106.65 379.7 106.65 385.08 123.1 389.41 123.1 392.51 111.73 395.56 123.1 399.86 123.1 405.29 106.65"/><rect class="cls-1" x="406.77" y="106.65" width="4.18" height="16.45"/><polygon class="cls-1" points="425.52 116.81 417.93 106.65 414.24 106.65 414.24 123.1 418.17 123.1 418.17 112.97 425.73 123.1 429.42 123.1 429.42 106.65 425.52 106.65 425.52 116.81"/><polygon class="cls-1" points="436.64 112.97 444.2 123.1 447.89 123.1 447.89 106.65 443.99 106.65 443.99 116.81 436.4 106.65 432.71 106.65 432.71 123.1 436.64 123.1 436.64 112.97"/><polygon class="cls-1" points="464.32 119.81 455.37 119.81 455.37 116.5 463.21 116.5 463.21 113.21 455.37 113.21 455.37 109.94 464.06 109.94 464.06 106.65 451.18 106.65 451.18 123.1 464.32 123.1 464.32 119.81"/><path class="cls-1" d="M481.21,112.39c0-3.67-2.49-5.74-6.84-5.74H467V123.1h4.18v-4.63h3.29l2.45,4.63h4.74l-3.45-5.43A5.48,5.48,0,0,0,481.21,112.39Zm-6.84,2.79H471.2v-5.24h3.17c1.81,0,2.87.87,2.87,2.59S476.18,115.18,474.37,115.18Z"/><polygon class="cls-1" points="419.05 141.08 411.74 141.08 411.74 137.3 419.68 137.3 419.68 134.04 407.59 134.04 407.59 150.35 411.74 150.35 411.74 144.34 419.05 144.34 419.05 141.08"/><path class="cls-1" d="M437.65,142.17c0-4.73-3.78-8.27-8.83-8.27s-8.81,3.52-8.81,8.27,3.78,8.37,8.81,8.37S437.65,146.92,437.65,142.17Zm-13.4,0a4.69,4.69,0,0,1,4.61-4.83,4.86,4.86,0,0,1,0,9.69A4.74,4.74,0,0,1,424.25,142.2Z"/><path class="cls-1" d="M453.33,139.73c0-3.64-2.47-5.69-6.78-5.69h-7.29v16.31h4.14v-4.59h3.26l2.43,4.59h4.7L450.37,145A5.44,5.44,0,0,0,453.33,139.73Zm-6.78,2.77H443.4v-5.2h3.15c1.79,0,2.84.87,2.84,2.57S448.34,142.5,446.55,142.5Z"/><polygon class="cls-1" points="352.96 171.18 348.53 161.45 343.98 161.45 343.98 177.81 347.69 177.81 347.69 167.19 351.61 176.18 354.32 176.18 358.24 167.19 358.26 177.81 361.92 177.81 361.92 161.45 357.4 161.45 352.96 171.18"/><path class="cls-1" d="M369.93,161.48l-7.05,16.33h4.27l1.19-3h7.14l1.17,3h4.44l-6.89-16.33Zm-.37,10.17,2.38-6,2.33,6Z"/><path class="cls-1" d="M396.58,177.81l-3.43-5.39a5.44,5.44,0,0,0,3-5.25c0-3.64-2.48-5.69-6.8-5.69H382v16.33h4.15v-4.6h3.27l2.43,4.6ZM389.32,170h-3.15v-5.21h3.15c1.8,0,2.85.87,2.85,2.57S391.12,170,389.32,170Z"/><polygon class="cls-1" points="402.49 173.8 404.66 171.39 408.98 177.81 413.95 177.81 407.48 168.24 413.55 161.48 408.74 161.48 402.49 168.55 402.49 161.48 398.33 161.48 398.33 177.81 402.49 177.81 402.49 173.8"/><polygon class="cls-1" points="428.23 174.54 419.34 174.54 419.34 171.25 427.13 171.25 427.13 167.99 419.34 167.99 419.34 164.74 427.97 164.74 427.97 161.48 415.19 161.48 415.19 177.81 428.23 177.81 428.23 174.54"/><polygon class="cls-1" points="437.89 177.81 437.89 164.81 442.82 164.81 442.82 161.45 428.86 161.45 428.86 164.81 433.74 164.81 433.74 177.81 437.89 177.81"/><path class="cls-1" d="M448.16,173.21h3c4.17,0,6.58-2.21,6.58-6,0-3.64-2.41-5.69-6.58-5.69H444v16.33h4.15Zm0-8.47h2.76c1.82,0,2.87.87,2.87,2.57s-1.05,2.64-2.87,2.64h-2.76Z"/><path class="cls-1" d="M477.15,161.48l-6.77,15.69v-2.84h-6.93V161.48H459.3v16.33h15.07l1.19-3h7.14l1.17,3h4.43l-6.88-16.33Zm-.37,10.17,2.38-6,2.33,6Z"/><path class="cls-1" d="M496.52,174.36a4.78,4.78,0,0,1,0-9.55,5.6,5.6,0,0,1,4.11,2.13l2.4-2.85a9.47,9.47,0,0,0-6.58-2.75c-5,0-8.73,3.54-8.73,8.26a8.3,8.3,0,0,0,8.59,8.4,9.85,9.85,0,0,0,6.74-3l-2.42-2.57A6.13,6.13,0,0,1,496.52,174.36Z"/><polygon class="cls-1" points="508.52 171.25 516.31 171.25 516.31 167.99 508.52 167.99 508.52 164.74 517.15 164.74 517.15 161.48 504.36 161.48 504.36 177.81 517.41 177.81 517.41 174.54 508.52 174.54 508.52 171.25"/><polygon class="cls-1" points="394.44 198.63 402.14 198.63 402.14 195.41 394.44 195.41 394.44 192.21 402.96 192.21 402.96 188.98 390.34 188.98 390.34 205.11 403.22 205.11 403.22 201.88 394.44 201.88 394.44 198.63"/><polygon class="cls-1" points="403.84 192.28 408.66 192.28 408.66 205.11 412.76 205.11 412.76 192.28 417.62 192.28 417.62 188.96 403.84 188.96 403.84 192.28"/><polygon class="cls-1" points="429.57 195.62 422.89 195.62 422.89 188.98 418.79 188.98 418.79 205.11 422.89 205.11 422.89 198.84 429.57 198.84 429.57 205.11 433.68 205.11 433.68 188.98 429.57 188.98 429.57 195.62"/><rect class="cls-1" x="436.33" y="188.98" width="4.1" height="16.13"/><path class="cls-1" d="M450.7,201.7a4.72,4.72,0,0,1,0-9.42,5.52,5.52,0,0,1,4.06,2.09l2.37-2.81a9.36,9.36,0,0,0-6.5-2.72c-4.9,0-8.61,3.51-8.61,8.16a8.18,8.18,0,0,0,8.47,8.29,9.71,9.71,0,0,0,6.66-2.95l-2.39-2.53A6.07,6.07,0,0,1,450.7,201.7Z"/><path class="cls-1" d="M462.52,193.29c0-.78.72-1.18,1.77-1.18a12,12,0,0,1,5.16,1.69l1.55-3.21a12.13,12.13,0,0,0-6.36-1.79c-3.87,0-6.43,1.89-6.43,4.86,0,5.71,8.53,4,8.53,6.86,0,.92-.81,1.41-2.1,1.41a10.08,10.08,0,0,1-5.83-2.42l-1.59,3.16a12.06,12.06,0,0,0,7.37,2.57c3.6,0,6.45-1.7,6.45-4.93C471,194.49,462.52,196.08,462.52,193.29Z"/><rect class="cls-1" x="320.4" y="60.94" width="1.36" height="153.97"/><path class="cls-1" d="M139,170.27c-.2-.18-.56-.23-1.19-.17l-3.64.36a4.55,4.55,0,0,0-.66.1c-1,.14-1.48.59-1.36,1.25s.54,1,1.35,1.07a15.66,15.66,0,0,0,3.13-.23,5.45,5.45,0,0,0,2.33-.69,1,1,0,0,0,.36-1A1,1,0,0,0,139,170.27Z"/><path class="cls-1" d="M80.13,171.28c-2.46.71-3.6,1.78-3.35,3.26a1.33,1.33,0,0,0,1.72,1.24,2.31,2.31,0,0,0,1.53-.89c.37-.47.44-1.39.23-2.8Z"/><polygon class="cls-1" points="66.8 113.8 65.32 129.09 72.87 127.91 66.8 113.8"/><path class="cls-1" d="M79.86,78.23c-34.22,7-56.29,40.57-49.28,75.09S71,210.18,105.24,203.24s56.29-40.57,49.28-75.09S114.09,71.29,79.86,78.23Zm25.59,20.45,8.69-1.37,2.25,14.27,12.61-2,1.47,9.39-12.62,2,2.21,14.28-8.69,1.35-2.2-14.26-12.63,2-1.49-9.41,12.65-2Zm-.74,58.56-5.91.94L98,153.07l5.93-.93ZM58.24,99.86l15.1-2.38,22.5,48.4-14.56,2.28-4.19-9.57-12.47,2L63.36,151l-11.57,1.81ZM62.56,182l-4.24-8-2,.31,1.3,8.46-6.2,1L48,161.65,58.57,160a7.74,7.74,0,0,1,5.71.94A6.17,6.17,0,0,1,67,165.31a8.16,8.16,0,0,1-.17,3.48,6.2,6.2,0,0,1-2.48,3l5.14,9.05Zm19.3-3a10.19,10.19,0,0,1-.6-2.27,6,6,0,0,1-8.67,2.55A5,5,0,0,1,70.76,176a5.08,5.08,0,0,1,1.5-4.54c1.27-1.32,3.75-2.36,7.43-3.17l-.08-.36c-.12-.73-.33-1.18-.69-1.35a1.91,1.91,0,0,0-1.34-.17,2.05,2.05,0,0,0-2,2.17l-5.45.29q.33-5.33,7.06-6.38a13.19,13.19,0,0,1,3.4-.14,5.49,5.49,0,0,1,2.62.84,4.34,4.34,0,0,1,1.46,1.61,13.12,13.12,0,0,1,.85,3.55l1,6.56a9.17,9.17,0,0,0,1,3.13Zm14.23-2a5.67,5.67,0,0,1-4.22-.65,5.83,5.83,0,0,1-1.94-3.86l-.27-1.95-.78-5.15-2.25.34-.69-4.18,2.28-.35-.77-5.37,5.61-1,.86,5.42,3-.48.66,4.18-3,.51.92,6c.16.85.37,1.3.71,1.43a2,2,0,0,0,.9.08,7.49,7.49,0,0,0,1.67-.55l.7,4.59A17.28,17.28,0,0,1,96.09,176.89Zm5.47-1.09L99,159.38l5.93-.94,2.56,16.44ZM119.45,173l-1.6-10.36a2.61,2.61,0,0,0-.59-1.57,1.45,1.45,0,0,0-1-.2c-1.05.17-1.47,1.09-1.2,2.72l1.54,9.83-5.92,1-2.56-16.44,5.48-.87.35,2.34a4.47,4.47,0,0,1,3.92-3.36,5.53,5.53,0,0,1,2.91.23,4.13,4.13,0,0,1,1.91,1.55,10.84,10.84,0,0,1,1.08,3.7l1.62,10.55Zm23.69.55c-1.09,1.18-3.37,2.07-7,2.64-5.48.85-8.42-.09-8.89-2.84a3.32,3.32,0,0,1,1.71-3.49,3.2,3.2,0,0,1-1.8-2.34c-.26-1.6.53-3,2.32-4.09a4,4,0,0,1-3-3.44,4.5,4.5,0,0,1,1.35-4.12,9.59,9.59,0,0,1,5.18-2.2,10.47,10.47,0,0,1,2.88-.1q-.09-4,3.15-4.46c.47-.08,1.2-.14,2.1-.19l.54,4.43-.31,0a10.56,10.56,0,0,0-1.13.15c-.9.12-1.43.42-1.54.85a4.76,4.76,0,0,1,2.25,3.4,4.49,4.49,0,0,1-1.23,4.08,8.8,8.8,0,0,1-4.79,2l-.78.11-.65,0c-1,.17-1.43.53-1.35,1.08s.54.64,1.42.53l4.87-.53a5.21,5.21,0,0,1,4.14,1,5.59,5.59,0,0,1,1.79,3.3A4.88,4.88,0,0,1,143.14,173.54Z"/><path class="cls-1" d="M134.15,160.87c1.17-.16,1.65-.91,1.41-2.25s-.91-1.92-2-1.74-1.65.94-1.43,2.35S133,161.07,134.15,160.87Z"/><path class="cls-1" d="M57.79,164.91l-2.84.44.65,4.22,2.67-.43a3,3,0,0,0,1.77-.82,1.82,1.82,0,0,0,.5-1.65C60.32,165.22,59.42,164.65,57.79,164.91Z"/></g></g></svg>